<?xml version="1.0" encoding="UTF-8" standalone="no"?>
<svg
   xmlns:dc="http://purl.org/dc/elements/1.1/"
   xmlns:cc="http://creativecommons.org/ns#"
   xmlns:rdf="http://www.w3.org/1999/02/22-rdf-syntax-ns#"
   xmlns:svg="http://www.w3.org/2000/svg"
   xmlns="http://www.w3.org/2000/svg"
   xmlns:xlink="http://www.w3.org/1999/xlink"
   xmlns:sodipodi="http://sodipodi.sourceforge.net/DTD/sodipodi-0.dtd"
   xmlns:inkscape="http://www.inkscape.org/namespaces/inkscape"
   width="128"
   height="41"
   viewBox="0 0 128 41"
   version="1.1"
   id="svg216"
   sodipodi:docname="dib_logo.svg"
   inkscape:version="0.92.2 5c3e80d, 2017-08-06">
  <metadata
     id="metadata220">
    <rdf:RDF>
      <cc:Work
         rdf:about="">
        <dc:format>image/svg+xml</dc:format>
        <dc:type
           rdf:resource="http://purl.org/dc/dcmitype/StillImage" />
        <dc:title>dib_logo</dc:title>
      </cc:Work>
    </rdf:RDF>
  </metadata>
  <sodipodi:namedview
     pagecolor="#ffffff"
     bordercolor="#666666"
     borderopacity="1"
     objecttolerance="10"
     gridtolerance="10"
     guidetolerance="10"
     inkscape:pageopacity="0"
     inkscape:pageshadow="2"
     inkscape:window-width="2783"
     inkscape:window-height="1712"
     id="namedview218"
     showgrid="false"
     inkscape:zoom="4.6896552"
     inkscape:cx="16.127719"
     inkscape:cy="7.7464226"
     inkscape:window-x="0"
     inkscape:window-y="56"
     inkscape:window-maximized="0"
     inkscape:current-layer="svg216"
     inkscape:lockguides="false"
     showguides="true"
     inkscape:guide-bbox="true">
    <sodipodi:guide
       position="2.5632621,31.136095"
       orientation="1,0"
       id="guide5396"
       inkscape:locked="false" />
    <sodipodi:guide
       position="11.402747,4.2029959"
       orientation="0,1"
       id="guide5398"
       inkscape:locked="false" />
    <sodipodi:guide
       position="16.887374,7.2374459"
       orientation="1,0"
       id="guide5400"
       inkscape:locked="false" />
    <sodipodi:guide
       position="123.16851,21.938508"
       orientation="1,0"
       id="guide5402"
       inkscape:locked="false" />
  </sodipodi:namedview>
  <title
     id="title2">dib_logo</title>
  <desc
     id="desc4">Created using Figma</desc>
  <g
     id="Canvas"
     transform="translate(815.6585,674.73549)"
     style="fill:#000000;fill-opacity:1">
    <clipPath
       id="clip-0"
       style="clip-rule:evenodd">
      <path
         d="m -685.159,-747 h 144 v 40 h -144 z"
         id="path6"
         inkscape:connector-curvature="0"
         style="fill:#ffffff" />
    </clipPath>
    <g
       id="dib_logo"
       clip-path="url(#clip-0)"
       style="fill:#000000;fill-opacity:1"
       transform="translate(0,-6)">
      <g
         id="Logo"
         style="fill:#000000;fill-opacity:1">
        <g
           id="Bewegung"
           style="fill:#000000;fill-opacity:1">
          <use
             xlink:href="#path0_fill"
             transform="translate(-685.127,-723.255)"
             id="use9"
             style="fill:#000000;fill-opacity:1"
             x="0"
             y="0"
             width="100%"
             height="100%" />
          <use
             xlink:href="#path1_fill"
             transform="translate(-685.127,-723.255)"
             id="use11"
             style="fill:#000000;fill-opacity:1"
             x="0"
             y="0"
             width="100%"
             height="100%" />
          <use
             xlink:href="#path2_fill"
             transform="translate(-685.127,-723.255)"
             id="use13"
             style="fill:#000000;fill-opacity:1"
             x="0"
             y="0"
             width="100%"
             height="100%" />
          <use
             xlink:href="#path3_fill"
             transform="translate(-685.127,-723.255)"
             id="use15"
             style="fill:#000000;fill-opacity:1"
             x="0"
             y="0"
             width="100%"
             height="100%" />
          <use
             xlink:href="#path4_fill"
             transform="translate(-685.127,-723.255)"
             id="use17"
             style="fill:#000000;fill-opacity:1"
             x="0"
             y="0"
             width="100%"
             height="100%" />
          <use
             xlink:href="#path5_fill"
             transform="translate(-685.127,-723.255)"
             id="use19"
             style="fill:#000000;fill-opacity:1"
             x="0"
             y="0"
             width="100%"
             height="100%" />
          <use
             xlink:href="#path6_fill"
             transform="translate(-685.127,-723.255)"
             id="use21"
             style="fill:#000000;fill-opacity:1"
             x="0"
             y="0"
             width="100%"
             height="100%" />
          <use
             xlink:href="#path7_fill"
             transform="translate(-685.127,-723.255)"
             id="use23"
             style="fill:#000000;fill-opacity:1"
             x="0"
             y="0"
             width="100%"
             height="100%" />
        </g>
        <g
           id="Demokratie in"
           style="fill:#000000;fill-opacity:1">
          <use
             xlink:href="#path8_fill"
             transform="translate(-685.159,-743)"
             id="use26"
             style="fill:#000000;fill-opacity:1"
             x="0"
             y="0"
             width="100%"
             height="100%" />
          <use
             xlink:href="#path9_fill"
             transform="translate(-685.159,-743)"
             id="use28"
             style="fill:#000000;fill-opacity:1"
             x="0"
             y="0"
             width="100%"
             height="100%" />
          <use
             xlink:href="#path10_fill"
             transform="translate(-685.159,-743)"
             id="use30"
             style="fill:#000000;fill-opacity:1"
             x="0"
             y="0"
             width="100%"
             height="100%" />
          <use
             xlink:href="#path11_fill"
             transform="translate(-685.159,-743)"
             id="use32"
             style="fill:#000000;fill-opacity:1"
             x="0"
             y="0"
             width="100%"
             height="100%" />
          <use
             xlink:href="#path12_fill"
             transform="translate(-685.159,-743)"
             id="use34"
             style="fill:#000000;fill-opacity:1"
             x="0"
             y="0"
             width="100%"
             height="100%" />
          <use
             xlink:href="#path13_fill"
             transform="translate(-685.159,-743)"
             id="use36"
             style="fill:#000000;fill-opacity:1"
             x="0"
             y="0"
             width="100%"
             height="100%" />
          <use
             xlink:href="#path14_fill"
             transform="translate(-685.159,-743)"
             id="use38"
             style="fill:#000000;fill-opacity:1"
             x="0"
             y="0"
             width="100%"
             height="100%" />
          <use
             xlink:href="#path15_fill"
             transform="translate(-685.159,-743)"
             id="use40"
             style="fill:#000000;fill-opacity:1"
             x="0"
             y="0"
             width="100%"
             height="100%" />
          <use
             xlink:href="#path16_fill"
             transform="translate(-685.159,-743)"
             id="use42"
             style="fill:#000000;fill-opacity:1"
             x="0"
             y="0"
             width="100%"
             height="100%" />
          <use
             xlink:href="#path17_fill"
             transform="translate(-685.159,-743)"
             id="use44"
             style="fill:#000000;fill-opacity:1"
             x="0"
             y="0"
             width="100%"
             height="100%" />
          <use
             xlink:href="#path18_fill"
             transform="translate(-685.159,-743)"
             id="use46"
             style="fill:#000000;fill-opacity:1"
             x="0"
             y="0"
             width="100%"
             height="100%" />
          <use
             xlink:href="#path19_fill"
             transform="translate(-685.159,-743)"
             id="use48"
             style="fill:#000000;fill-opacity:1"
             x="0"
             y="0"
             width="100%"
             height="100%" />
        </g>
      </g>
    </g>
  </g>
  <defs
     id="defs214">
    <path
       id="path0_fill"
       d="m 0.628026,16.0289 c -0.170575,0 -0.31789,-0.0602 -0.441944,-0.1806 C 0.0620273,15.7279 0,15.5849 0,15.4193 V 0.835308 C 0,0.669751 0.0620273,0.526771 0.186082,0.406366 0.310136,0.285961 0.457451,0.225759 0.628026,0.225759 H 7.48979 c 0.99244,0 1.82205,0.150506 2.48885,0.451517 0.66676,0.285962 1.20176,0.654704 1.60496,1.106214 0.4032,0.43647 0.69,0.91809 0.8606,1.44486 0.1861,0.51172 0.2791,0.99334 0.2791,1.44486 0,0.45152 -0.062,0.85788 -0.186,1.2191 -0.1241,0.34616 -0.2792,0.64717 -0.4652,0.90303 -0.1706,0.24081 -0.3489,0.44399 -0.535,0.60955 -0.1706,0.16556 -0.3102,0.27844 -0.4187,0.33864 0.4807,0.31606 0.9226,0.76758 1.3258,1.35455 C 12.8474,9.67 13.049,10.4 13.049,11.2879 c 0,0.572 -0.1086,1.1439 -0.3257,1.7158 -0.2171,0.5569 -0.5349,1.0611 -0.9536,1.5126 -0.4187,0.4515 -0.9459,0.8202 -1.5817,1.1062 -0.62029,0.2709 -1.34136,0.4064 -2.16322,0.4064 z M 9.58321,4.78609 C 9.58321,4.21416 9.39713,3.78522 9.02497,3.49926 8.6528,3.19825 8.06355,3.04774 7.25719,3.04774 H 3.14013 v 3.47669 h 4.11706 c 0.80636,0 1.39561,-0.14298 1.76778,-0.42894 C 9.39713,5.79448 9.58321,5.35801 9.58321,4.78609 Z M 3.14013,13.2069 h 4.30314 c 0.85288,0 1.47315,-0.1731 1.86082,-0.5193 0.40318,-0.3612 0.60477,-0.8277 0.60477,-1.3997 0,-0.5719 -0.20934,-1.0385 -0.62803,-1.39966 C 8.87765,9.52702 8.26513,9.34642 7.44327,9.34642 H 3.14013 Z"
       inkscape:connector-curvature="0" />
    <path
       id="path1_fill"
       d="m 27.0178,13.2069 c 0.1706,0 0.3179,0.0602 0.442,0.1806 0.124,0.1204 0.1861,0.2634 0.1861,0.4289 v 1.6029 c 0,0.1656 -0.0621,0.3086 -0.1861,0.429 -0.1241,0.1204 -0.2714,0.1806 -0.442,0.1806 H 16.8066 c -0.1706,0 -0.3179,-0.0602 -0.4419,-0.1806 -0.1241,-0.1204 -0.1861,-0.2634 -0.1861,-0.429 V 0.835308 c 0,-0.165557 0.062,-0.308537 0.1861,-0.428942 0.124,-0.120405 0.2713,-0.180607 0.4419,-0.180607 h 10.0252 c 0.1705,0 0.3179,0.060202 0.4419,0.180607 0.1241,0.120405 0.1861,0.263385 0.1861,0.428942 V 2.4382 c 0,0.16555 -0.062,0.30853 -0.1861,0.42894 -0.124,0.1204 -0.2714,0.1806 -0.4419,0.1806 H 19.3187 V 6.63731 H 26.32 c 0.1706,0 0.3179,0.0602 0.442,0.18061 0.124,0.1204 0.1861,0.26338 0.1861,0.42894 v 1.60289 c 0,0.16555 -0.0621,0.30853 -0.1861,0.42894 -0.1241,0.1204 -0.2714,0.1806 -0.442,0.1806 h -7.0013 v 3.74761 z"
       inkscape:connector-curvature="0" />
    <path
       id="path2_fill"
       d="m 38.2802,8.51111 -2.0004,6.75019 c -0.0776,0.2258 -0.1784,0.4139 -0.3024,0.5644 -0.1086,0.1354 -0.2791,0.2032 -0.5117,0.2032 h -1.8841 c -0.2326,0 -0.4187,-0.0678 -0.5583,-0.2032 -0.124,-0.1505 -0.2093,-0.3386 -0.2558,-0.5644 L 29.7902,1.01591 C 29.7747,0.940662 29.7669,0.880459 29.7669,0.835308 c 0,-0.165557 0.062,-0.308537 0.1861,-0.428942 0.124,-0.120405 0.2714,-0.180607 0.4419,-0.180607 h 1.7213 c 0.1551,0 0.3024,0.045152 0.4419,0.135455 0.1396,0.090304 0.2326,0.248335 0.2792,0.474094 l 1.9538,9.572192 1.7213,-6.02778 c 0.031,-0.10535 0.1008,-0.24081 0.2093,-0.40636 0.1241,-0.16556 0.3257,-0.24834 0.6048,-0.24834 h 1.9073 c 0.2791,0 0.473,0.08278 0.5815,0.24834 0.1241,0.16555 0.2016,0.30101 0.2326,0.40636 l 1.7213,6.02778 1.9538,-9.572192 c 0.0466,-0.225759 0.1396,-0.38379 0.2792,-0.474094 0.1395,-0.090303 0.2868,-0.135455 0.4419,-0.135455 h 1.7213 c 0.1705,0 0.3179,0.060202 0.4419,0.180607 0.1241,0.120405 0.1861,0.263385 0.1861,0.428942 0,0.045151 -0.0078,0.105354 -0.0233,0.180602 L 43.7928,15.2613 c -0.0465,0.2258 -0.1395,0.4139 -0.2791,0.5644 -0.124,0.1354 -0.3024,0.2032 -0.535,0.2032 h -1.8841 c -0.2326,0 -0.4109,-0.0678 -0.5349,-0.2032 -0.1086,-0.1505 -0.2016,-0.3386 -0.2792,-0.5644 z"
       inkscape:connector-curvature="0" />
    <path
       id="path3_fill"
       d="m 60.488,13.2069 c 0.1706,0 0.3179,0.0602 0.442,0.1806 0.124,0.1204 0.1861,0.2634 0.1861,0.4289 v 1.6029 c 0,0.1656 -0.0621,0.3086 -0.1861,0.429 -0.1241,0.1204 -0.2714,0.1806 -0.442,0.1806 H 50.2768 c -0.1706,0 -0.3179,-0.0602 -0.4419,-0.1806 -0.1241,-0.1204 -0.1861,-0.2634 -0.1861,-0.429 V 0.835308 c 0,-0.165557 0.062,-0.308537 0.1861,-0.428942 0.124,-0.120405 0.2713,-0.180607 0.4419,-0.180607 H 60.302 c 0.1705,0 0.3178,0.060202 0.4419,0.180607 C 60.868,0.526771 60.93,0.669751 60.93,0.835308 V 2.4382 c 0,0.16555 -0.062,0.30853 -0.1861,0.42894 -0.1241,0.1204 -0.2714,0.1806 -0.4419,0.1806 h -7.5131 v 3.58957 h 7.0013 c 0.1706,0 0.3179,0.0602 0.442,0.18061 0.124,0.1204 0.1861,0.26338 0.1861,0.42894 v 1.60289 c 0,0.16555 -0.0621,0.30853 -0.1861,0.42894 -0.1241,0.1204 -0.2714,0.1806 -0.442,0.1806 h -7.0013 v 3.74761 z"
       inkscape:connector-curvature="0" />
    <path
       id="path4_fill"
       d="M 63.5195,6.07291 C 63.5505,5.16988 63.7211,4.34962 64.0312,3.61214 64.3414,2.85961 64.7911,2.21996 65.3803,1.69319 65.9696,1.15137 66.6906,0.737479 67.5435,0.451518 68.4119,0.150506 69.4198,0 70.5674,0 c 1.349,0 2.4578,0.173082 3.3262,0.519245 0.8839,0.331113 1.5816,0.737475 2.0934,1.219095 0.5272,0.46657 0.8916,0.95572 1.0932,1.46744 0.2171,0.49666 0.3412,0.91808 0.3722,1.26424 0.0155,0.18061 -0.0465,0.33112 -0.1861,0.45152 -0.1241,0.10536 -0.2714,0.15803 -0.442,0.15803 h -1.884 c -0.1706,0 -0.3102,-0.03762 -0.4187,-0.11288 C 74.4285,4.87639 74.3588,4.78609 74.3122,4.69578 74.2812,4.63558 74.1959,4.50765 74.0564,4.31199 73.9323,4.10129 73.723,3.89058 73.4284,3.67987 73.1492,3.45411 72.7771,3.25845 72.3119,3.0929 71.8467,2.91229 71.2652,2.82199 70.5674,2.82199 c -1.1631,0 -2.0935,0.30853 -2.7913,0.92561 -0.6978,0.60202 -1.07,1.41475 -1.1165,2.43819 -0.031,0.57192 -0.0465,1.189 -0.0465,1.85122 0,0.64718 0.0155,1.25673 0.0465,1.82865 0.0465,1.24924 0.4187,2.15974 1.1165,2.73164 0.6978,0.5569 1.6282,0.8353 2.7913,0.8353 0.5737,0 1.1009,-0.0602 1.5816,-0.1806 0.4808,-0.1204 0.8917,-0.316 1.2328,-0.5869 0.3567,-0.2709 0.6281,-0.6246 0.8141,-1.0611 0.2016,-0.4515 0.3024,-1.0009 0.3024,-1.64804 v -0.1806 h -2.8377 c -0.1706,0 -0.3179,-0.06021 -0.442,-0.18061 -0.124,-0.1204 -0.186,-0.26339 -0.186,-0.42894 V 7.56292 c 0,-0.16556 0.062,-0.30854 0.186,-0.42894 0.1241,-0.12041 0.2714,-0.18061 0.442,-0.18061 h 5.3498 c 0.1706,0 0.3179,0.0602 0.442,0.18061 0.124,0.1204 0.1861,0.26338 0.1861,0.42894 v 2.48338 c 0,0.903 -0.1474,1.7383 -0.442,2.5059 -0.2946,0.7525 -0.7366,1.4072 -1.3258,1.9641 -0.5893,0.5418 -1.3259,0.9708 -2.2097,1.2868 -0.8839,0.301 -1.9151,0.4515 -3.0936,0.4515 -1.1786,0 -2.202,-0.1505 -3.0704,-0.4515 -0.8684,-0.301 -1.5894,-0.7224 -2.1632,-1.2642 C 64.76,13.997 64.3181,13.3499 64.008,12.5973 63.7133,11.8298 63.5505,10.9945 63.5195,10.0914 63.504,9.80546 63.4885,9.4894 63.473,9.14323 c 0,-0.34616 0,-0.69985 0,-1.06106 0,-0.36122 0,-0.71491 0,-1.06107 0.0155,-0.34616 0.031,-0.66223 0.0465,-0.94819 z"
       inkscape:connector-curvature="0" />
    <path
       id="path5_fill"
       d="m 93.3858,0.225759 c 0.1706,0 0.3179,0.060202 0.442,0.180607 0.124,0.120405 0.186,0.263385 0.186,0.428942 V 10.0914 c 0,0.9332 -0.1395,1.776 -0.4186,2.5285 -0.2792,0.7525 -0.6979,1.3997 -1.2561,1.9415 -0.5582,0.5419 -1.2561,0.9633 -2.0934,1.2643 -0.8374,0.286 -1.8066,0.4289 -2.9075,0.4289 -1.1165,0 -2.0935,-0.1429 -2.9308,-0.4289 -0.8219,-0.301 -1.5119,-0.7224 -2.0702,-1.2643 -0.5582,-0.5418 -0.9769,-1.189 -1.256,-1.9415 -0.2637,-0.7525 -0.3955,-1.5953 -0.3955,-2.5285 V 0.835308 c 0,-0.165557 0.0621,-0.308537 0.1861,-0.428942 0.1241,-0.120405 0.2714,-0.180607 0.442,-0.180607 h 1.884 c 0.1706,0 0.3179,0.060202 0.442,0.180607 0.124,0.120405 0.1861,0.263385 0.1861,0.428942 V 9.97854 c 0,0.61706 0.0852,1.14386 0.2558,1.58036 0.1706,0.4364 0.4109,0.7976 0.7211,1.0836 0.3101,0.2709 0.6823,0.4741 1.1165,0.6095 0.4342,0.1204 0.9071,0.1806 1.4189,0.1806 0.5117,0 0.9846,-0.0602 1.4188,-0.1806 0.4497,-0.1354 0.8296,-0.3386 1.1398,-0.6095 0.3101,-0.286 0.5505,-0.6472 0.721,-1.0836 0.1861,-0.4365 0.2792,-0.9633 0.2792,-1.58036 V 0.835308 c 0,-0.165557 0.062,-0.308537 0.186,-0.428942 0.1241,-0.120405 0.2714,-0.180607 0.442,-0.180607 z"
       inkscape:connector-curvature="0" />
    <path
       id="path6_fill"
       d="m 108.313,16.0289 c -0.264,0 -0.465,-0.0678 -0.605,-0.2032 -0.139,-0.1355 -0.24,-0.2408 -0.302,-0.3161 l -6.513,-9.39154 v 9.30124 c 0,0.1656 -0.062,0.3086 -0.186,0.429 -0.124,0.1204 -0.271,0.1806 -0.442,0.1806 h -1.8841 c -0.1705,0 -0.3179,-0.0602 -0.4419,-0.1806 -0.1241,-0.1204 -0.1861,-0.2634 -0.1861,-0.429 V 0.835308 c 0,-0.165557 0.062,-0.308537 0.1861,-0.428942 0.124,-0.120405 0.2714,-0.180607 0.4419,-0.180607 h 1.6281 c 0.264,0 0.465,0.067727 0.605,0.203183 0.139,0.135455 0.24,0.240809 0.302,0.316062 l 6.513,9.391596 V 0.835308 c 0,-0.165557 0.062,-0.308537 0.186,-0.428942 0.124,-0.120405 0.272,-0.180607 0.442,-0.180607 h 1.884 c 0.171,0 0.318,0.060202 0.442,0.180607 0.124,0.120405 0.186,0.263385 0.186,0.428942 V 15.4193 c 0,0.1656 -0.062,0.3086 -0.186,0.429 -0.124,0.1204 -0.271,0.1806 -0.442,0.1806 z"
       inkscape:connector-curvature="0" />
    <path
       id="path7_fill"
       d="m 113.85,6.07291 c 0.031,-0.90303 0.201,-1.72329 0.511,-2.46077 0.311,-0.75253 0.76,-1.39218 1.35,-1.91895 0.589,-0.54182 1.31,-0.955711 2.163,-1.241672 C 118.742,0.150506 119.75,0 120.898,0 c 1.349,0 2.457,0.173082 3.326,0.519245 0.884,0.331113 1.581,0.737475 2.093,1.219095 0.527,0.46657 0.892,0.95572 1.093,1.46744 0.218,0.49666 0.342,0.91808 0.373,1.26424 0.015,0.18061 -0.047,0.33112 -0.187,0.45152 -0.124,0.10536 -0.271,0.15803 -0.441,0.15803 h -1.885 c -0.17,0 -0.31,-0.03762 -0.418,-0.11288 -0.093,-0.0903 -0.163,-0.1806 -0.21,-0.27091 -0.031,-0.0602 -0.116,-0.18813 -0.255,-0.38379 -0.124,-0.2107 -0.334,-0.42141 -0.628,-0.63212 -0.28,-0.22576 -0.652,-0.42142 -1.117,-0.58697 -0.465,-0.18061 -1.047,-0.27091 -1.744,-0.27091 -1.163,0 -2.094,0.30853 -2.792,0.92561 -0.697,0.60202 -1.07,1.41475 -1.116,2.43819 -0.031,0.57192 -0.047,1.189 -0.047,1.85122 0,0.64718 0.016,1.25673 0.047,1.82865 0.046,1.24924 0.419,2.15974 1.116,2.73164 0.698,0.5569 1.629,0.8353 2.792,0.8353 0.573,0 1.101,-0.0602 1.581,-0.1806 0.481,-0.1204 0.892,-0.316 1.233,-0.5869 0.357,-0.2709 0.628,-0.6246 0.814,-1.0611 0.202,-0.4515 0.303,-1.0009 0.303,-1.64804 v -0.1806 h -2.838 c -0.171,0 -0.318,-0.06021 -0.442,-0.18061 -0.124,-0.1204 -0.186,-0.26339 -0.186,-0.42894 V 7.56292 c 0,-0.16556 0.062,-0.30854 0.186,-0.42894 0.124,-0.12041 0.271,-0.18061 0.442,-0.18061 h 5.35 c 0.17,0 0.318,0.0602 0.442,0.18061 0.124,0.1204 0.186,0.26338 0.186,0.42894 v 2.48338 c 0,0.903 -0.148,1.7383 -0.442,2.5059 -0.295,0.7525 -0.737,1.4072 -1.326,1.9641 -0.589,0.5418 -1.326,0.9708 -2.21,1.2868 -0.884,0.301 -1.915,0.4515 -3.093,0.4515 -1.179,0 -2.202,-0.1505 -3.071,-0.4515 -0.868,-0.301 -1.589,-0.7224 -2.163,-1.2642 -0.574,-0.5419 -1.016,-1.189 -1.326,-1.9416 -0.294,-0.7675 -0.457,-1.6028 -0.488,-2.5059 -0.016,-0.28594 -0.031,-0.602 -0.047,-0.94817 0,-0.34616 0,-0.69985 0,-1.06106 0,-0.36122 0,-0.71491 0,-1.06107 0.016,-0.34616 0.031,-0.66223 0.047,-0.94819 z"
       inkscape:connector-curvature="0" />
    <path
       id="path8_fill"
       d="m 4.74292,0.168006 c 0.85396,0 1.59251,0.112005 2.21567,0.336013 0.6347,0.212808 1.15977,0.520821 1.57521,0.924031 0.42697,0.40322 0.75009,0.89044 0.96935,1.46166 0.2308,0.57122 0.36928,1.20964 0.41544,1.91527 0.04616,0.82883 0.04616,1.65766 0,2.4865 C 9.87243,7.9971 9.73395,8.63553 9.50315,9.20675 9.28389,9.77797 8.96654,10.2652 8.55111,10.6684 8.13567,11.0716 7.61637,11.3852 6.99321,11.6092 6.38159,11.822 5.66035,11.9285 4.82947,11.9285 H 0.467368 C 0.340429,11.9285 0.230799,11.8836 0.138479,11.794 0.0461598,11.7044 0,11.598 0,11.4748 V 0.621623 C 0,0.498419 0.0461598,0.392015 0.138479,0.302411 0.230799,0.212808 0.340429,0.168006 0.467368,0.168006 Z M 7.58175,4.80498 C 7.55867,4.44657 7.48366,4.11616 7.35672,3.81374 7.24132,3.50013 7.06245,3.23132 6.82011,3.00731 6.58931,2.7721 6.29504,2.5929 5.93731,2.46969 5.57957,2.33529 5.15259,2.26809 4.65637,2.26809 H 2.33684 v 7.56028 h 2.40608 c 0.47314,0 0.88281,-0.0616 1.22901,-0.18481 0.34619,-0.1344 0.63469,-0.31361 0.86549,-0.53762 0.2308,-0.224 0.4039,-0.49281 0.5193,-0.80643 0.12694,-0.31361 0.20195,-0.64962 0.22503,-1.00803 0.04616,-0.82884 0.04616,-1.65767 0,-2.4865 z"
       inkscape:connector-curvature="0" />
    <path
       id="path9_fill"
       d="m 20.3409,9.82837 c 0.127,0 0.2366,0.0448 0.3289,0.13441 0.0923,0.08962 0.1385,0.19602 0.1385,0.31922 v 1.1928 c 0,0.1232 -0.0462,0.2296 -0.1385,0.3192 -0.0923,0.0896 -0.2019,0.1345 -0.3289,0.1345 h -7.599 c -0.127,0 -0.2366,-0.0449 -0.3289,-0.1345 -0.0923,-0.0896 -0.1385,-0.196 -0.1385,-0.3192 V 0.621623 c 0,-0.123204 0.0462,-0.229608 0.1385,-0.319212 0.0923,-0.089603 0.2019,-0.134405 0.3289,-0.134405 h 7.4605 c 0.127,0 0.2366,0.044802 0.3289,0.134405 0.0924,0.089604 0.1385,0.196008 0.1385,0.319212 V 1.81447 c 0,0.1232 -0.0461,0.22961 -0.1385,0.31921 -0.0923,0.0896 -0.2019,0.13441 -0.3289,0.13441 h -5.5911 v 2.6713 h 5.2103 c 0.127,0 0.2366,0.0448 0.3289,0.1344 0.0923,0.0896 0.1385,0.19601 0.1385,0.31921 v 1.19285 c 0,0.1232 -0.0462,0.22961 -0.1385,0.31921 -0.0923,0.0896 -0.2019,0.13441 -0.3289,0.13441 h -5.2103 v 2.7889 z"
       inkscape:connector-curvature="0" />
    <path
       id="path10_fill"
       d="m 28.7222,6.16583 3.2889,-5.544207 c 0.0461,-0.056002 0.1211,-0.145605 0.225,-0.26881 0.1154,-0.123204 0.2885,-0.184807 0.5193,-0.184807 h 1.1771 c 0.1269,0 0.2365,0.044802 0.3289,0.134405 0.0923,0.089604 0.1384,0.196008 0.1384,0.319212 V 11.4748 c 0,0.1232 -0.0461,0.2296 -0.1384,0.3192 -0.0924,0.0896 -0.202,0.1345 -0.3289,0.1345 h -1.4021 c -0.127,0 -0.2366,-0.0449 -0.3289,-0.1345 C 32.1092,11.7044 32.063,11.598 32.063,11.4748 V 4.90579 l -2.2503,3.78014 c -0.0577,0.0896 -0.1385,0.18481 -0.2423,0.28561 -0.1039,0.0896 -0.2366,0.1344 -0.3982,0.1344 h -0.9001 c -0.1615,0 -0.2942,-0.0448 -0.3981,-0.1344 C 27.7701,8.87074 27.6894,8.77553 27.6317,8.68593 L 25.3814,4.90579 v 6.56901 c 0,0.1232 -0.0462,0.2296 -0.1385,0.3192 -0.0923,0.0896 -0.202,0.1345 -0.3289,0.1345 h -1.4021 c -0.1269,0 -0.2366,-0.0449 -0.3289,-0.1345 -0.0923,-0.0896 -0.1385,-0.196 -0.1385,-0.3192 V 0.621623 c 0,-0.123204 0.0462,-0.229608 0.1385,-0.319212 0.0923,-0.089603 0.202,-0.134405 0.3289,-0.134405 h 1.1771 c 0.2308,0 0.3981,0.061603 0.502,0.184807 0.1154,0.123205 0.1961,0.212808 0.2423,0.26881 z"
       inkscape:connector-curvature="0" />
    <path
       id="path11_fill"
       d="M 36.7631,4.55297 C 36.7977,3.92575 36.9188,3.33773 37.1266,2.78891 37.3458,2.22888 37.6632,1.74727 38.0786,1.34405 38.494,0.929635 39.0133,0.604823 39.6365,0.369614 40.2597,0.123205 40.9982,0 41.8522,0 c 0.8424,0 1.5752,0.117604 2.1983,0.352813 0.6232,0.235209 1.1425,0.560022 1.5579,0.974437 0.4155,0.41442 0.7328,0.89603 0.9521,1.44485 0.2192,0.54883 0.3462,1.14245 0.3808,1.78087 0.0115,0.21281 0.0173,0.44802 0.0173,0.70563 0.0115,0.25761 0.0173,0.52642 0.0173,0.80643 0,0.26881 -0.0058,0.53202 -0.0173,0.78963 0,0.25761 -0.0058,0.49282 -0.0173,0.70563 -0.0346,0.62722 -0.1616,1.22084 -0.3808,1.78086 -0.2077,0.54882 -0.5193,1.03045 -0.9348,1.44485 -0.4154,0.4032 -0.9405,0.7224 -1.5752,0.9576 -0.6231,0.2353 -1.3559,0.3529 -2.1983,0.3529 -0.854,0 -1.5925,-0.1176 -2.2157,-0.3529 C 39.0133,11.5084 38.494,11.1892 38.0786,10.786 37.6632,10.3716 37.3458,9.88997 37.1266,9.34115 36.9188,8.78113 36.7977,8.18751 36.7631,7.56029 36.7515,7.34748 36.74,7.11227 36.7284,6.85466 c 0,-0.25761 0,-0.52082 0,-0.78963 0,-0.28001 0,-0.54882 0,-0.80643 0.0116,-0.25761 0.0231,-0.49282 0.0347,-0.70563 z m 7.8414,0.08401 C 44.5583,3.83054 44.2871,3.20892 43.7909,2.7721 43.3062,2.32409 42.66,2.10008 41.8522,2.10008 c -0.8078,0 -1.4598,0.22401 -1.9561,0.67202 -0.4846,0.43682 -0.75,1.05844 -0.7962,1.86488 -0.0231,0.42561 -0.0346,0.90163 -0.0346,1.42805 0,0.51522 0.0115,0.98564 0.0346,1.41125 0.0462,0.80643 0.3116,1.42806 0.7962,1.86487 0.4963,0.43682 1.1483,0.65523 1.9561,0.65523 0.8078,0 1.454,-0.21841 1.9387,-0.65523 0.4962,-0.43681 0.7674,-1.05844 0.8136,-1.86487 0.023,-0.42561 0.0346,-0.89603 0.0346,-1.41125 0,-0.52642 -0.0116,-1.00244 -0.0346,-1.42805 z"
       inkscape:connector-curvature="0" />
    <path
       id="path12_fill"
       d="m 58.5093,11.2228 c 0.0577,0.056 0.0923,0.1064 0.1039,0.1512 0.0115,0.0448 0.0173,0.0784 0.0173,0.1008 0,0.1232 -0.0462,0.2296 -0.1385,0.3192 -0.0923,0.0896 -0.2019,0.1345 -0.3289,0.1345 h -1.6444 c -0.2308,0 -0.4155,-0.0561 -0.5539,-0.1681 -0.1385,-0.1232 -0.2193,-0.196 -0.2424,-0.2184 L 51.6546,7.08987 v 4.38493 c 0,0.1232 -0.0462,0.2296 -0.1385,0.3192 -0.0923,0.0896 -0.2019,0.1345 -0.3289,0.1345 h -1.4021 c -0.1269,0 -0.2365,-0.0449 -0.3289,-0.1345 -0.0923,-0.0896 -0.1384,-0.196 -0.1384,-0.3192 V 0.621623 c 0,-0.123204 0.0461,-0.229608 0.1384,-0.319212 0.0924,-0.089603 0.202,-0.134405 0.3289,-0.134405 h 1.4021 c 0.127,0 0.2366,0.044802 0.3289,0.134405 0.0923,0.089604 0.1385,0.196008 0.1385,0.319212 V 4.56977 L 55.4282,0.53762 C 55.532,0.425616 55.6416,0.336013 55.757,0.26881 55.8724,0.201608 56.0225,0.168006 56.2071,0.168006 h 1.5925 c 0.127,0 0.2366,0.044802 0.3289,0.134405 0.0923,0.089604 0.1385,0.196008 0.1385,0.319212 0,0.089604 -0.0346,0.173607 -0.1039,0.25201 L 53.5068,5.79622 Z"
       inkscape:connector-curvature="0" />
    <path
       id="path13_fill"
       d="m 65.207,0.168006 c 1.4425,0 2.5388,0.324813 3.2889,0.974434 0.7501,0.64963 1.1252,1.55126 1.1252,2.70491 0,0.81763 -0.1962,1.51765 -0.5886,2.10007 -0.3808,0.57123 -0.9462,0.99684 -1.6963,1.27685 l 2.3887,4.14973 c 0.0347,0.0672 0.052,0.1288 0.052,0.1848 0,0.1008 -0.0404,0.1904 -0.1212,0.2688 -0.0692,0.0672 -0.1558,0.1009 -0.2596,0.1009 h -1.4714 c -0.2308,0 -0.4039,-0.0505 -0.5193,-0.1513 -0.1038,-0.112 -0.1789,-0.2128 -0.225,-0.3024 L 64.9128,7.56029 h -2.3022 v 3.91451 c 0,0.1232 -0.0462,0.2296 -0.1385,0.3192 -0.0923,0.0896 -0.202,0.1345 -0.3289,0.1345 h -1.4021 c -0.127,0 -0.2366,-0.0449 -0.3289,-0.1345 -0.0923,-0.0896 -0.1385,-0.196 -0.1385,-0.3192 V 0.621623 c 0,-0.123204 0.0462,-0.229608 0.1385,-0.319212 0.0923,-0.089603 0.2019,-0.134405 0.3289,-0.134405 z M 62.6106,5.46021 h 2.5099 c 0.6578,0 1.1828,-0.11201 1.5752,-0.33602 0.3924,-0.22401 0.5885,-0.64962 0.5885,-1.27684 0,-0.62723 -0.1961,-1.04724 -0.5885,-1.26005 C 66.3033,2.37449 65.7783,2.26809 65.1205,2.26809 h -2.5099 z"
       inkscape:connector-curvature="0" />
    <path
       id="path14_fill"
       d="m 77.6515,0.168006 c 0.1847,0 0.3232,0.050402 0.4155,0.151206 0.0923,0.089603 0.1731,0.229609 0.2423,0.420016 l 4.241,10.617972 c 0.0115,0.0336 0.0173,0.0728 0.0173,0.1176 0,0.1232 -0.0462,0.2296 -0.1385,0.3192 -0.0923,0.0896 -0.202,0.1345 -0.3289,0.1345 h -1.2463 c -0.2308,0 -0.3924,-0.0449 -0.4847,-0.1345 -0.0923,-0.1008 -0.1558,-0.196 -0.1904,-0.2856 L 79.4345,9.64356 h -5.47 l -0.7443,1.86484 c -0.0346,0.0896 -0.0981,0.1848 -0.1904,0.2856 -0.0923,0.0896 -0.2539,0.1345 -0.4847,0.1345 h -1.2463 c -0.1269,0 -0.2366,-0.0449 -0.3289,-0.1345 -0.0923,-0.0896 -0.1385,-0.196 -0.1385,-0.3192 0,-0.0448 0.0058,-0.084 0.0173,-0.1176 l 4.241,-10.617972 c 0.0692,-0.190407 0.15,-0.330413 0.2423,-0.420016 0.0923,-0.100804 0.2308,-0.151206 0.4154,-0.151206 z M 78.6036,7.54348 76.6995,2.7553 74.7954,7.54348 Z"
       inkscape:connector-curvature="0" />
    <path
       id="path15_fill"
       d="m 91.0635,0.168006 c 0.1269,0 0.2366,0.044802 0.3289,0.134405 0.0923,0.089604 0.1385,0.196008 0.1385,0.319212 V 1.81447 c 0,0.1232 -0.0462,0.22961 -0.1385,0.31921 -0.0923,0.0896 -0.202,0.13441 -0.3289,0.13441 h -3.1158 v 9.20671 c 0,0.1232 -0.0462,0.2296 -0.1385,0.3192 -0.0923,0.0896 -0.2019,0.1345 -0.3289,0.1345 h -1.4021 c -0.1269,0 -0.2365,-0.0449 -0.3289,-0.1345 -0.0923,-0.0896 -0.1384,-0.196 -0.1384,-0.3192 V 2.26809 h -3.1158 c -0.127,0 -0.2366,-0.04481 -0.3289,-0.13441 C 82.0739,2.04408 82.0277,1.93767 82.0277,1.81447 V 0.621623 c 0,-0.123204 0.0462,-0.229608 0.1385,-0.319212 0.0923,-0.089603 0.2019,-0.134405 0.3289,-0.134405 z"
       inkscape:connector-curvature="0" />
    <path
       id="path16_fill"
       d="m 93.8119,11.9285 c -0.127,0 -0.2366,-0.0449 -0.3289,-0.1345 -0.0924,-0.0896 -0.1385,-0.196 -0.1385,-0.3192 V 0.621623 c 0,-0.123204 0.0461,-0.229608 0.1385,-0.319212 0.0923,-0.089603 0.2019,-0.134405 0.3289,-0.134405 h 1.4021 c 0.1269,0 0.2365,0.044802 0.3288,0.134405 0.0924,0.089604 0.1385,0.196008 0.1385,0.319212 V 11.4748 c 0,0.1232 -0.0461,0.2296 -0.1385,0.3192 -0.0923,0.0896 -0.2019,0.1345 -0.3288,0.1345 z"
       inkscape:connector-curvature="0" />
    <path
       id="path17_fill"
       d="m 106.535,9.82837 c 0.127,0 0.236,0.0448 0.329,0.13441 0.092,0.08962 0.138,0.19602 0.138,0.31922 v 1.1928 c 0,0.1232 -0.046,0.2296 -0.138,0.3192 -0.093,0.0896 -0.202,0.1345 -0.329,0.1345 h -7.5991 c -0.127,0 -0.2366,-0.0449 -0.3289,-0.1345 -0.0923,-0.0896 -0.1385,-0.196 -0.1385,-0.3192 V 0.621623 c 0,-0.123204 0.0462,-0.229608 0.1385,-0.319212 0.0923,-0.089603 0.2019,-0.134405 0.3289,-0.134405 h 7.4601 c 0.127,0 0.237,0.044802 0.329,0.134405 0.093,0.089604 0.139,0.196008 0.139,0.319212 V 1.81447 c 0,0.1232 -0.046,0.22961 -0.139,0.31921 -0.092,0.0896 -0.202,0.13441 -0.329,0.13441 h -5.591 v 2.6713 h 5.211 c 0.127,0 0.236,0.0448 0.329,0.1344 0.092,0.0896 0.138,0.19601 0.138,0.31921 v 1.19285 c 0,0.1232 -0.046,0.22961 -0.138,0.31921 -0.093,0.0896 -0.202,0.13441 -0.329,0.13441 h -5.211 v 2.7889 z"
       inkscape:connector-curvature="0" />
    <path
       id="path18_fill"
       d="m 113.731,11.9285 c -0.127,0 -0.236,-0.0449 -0.329,-0.1345 -0.092,-0.0896 -0.138,-0.196 -0.138,-0.3192 V 0.621623 c 0,-0.123204 0.046,-0.229608 0.138,-0.319212 0.093,-0.089603 0.202,-0.134405 0.329,-0.134405 h 1.402 c 0.127,0 0.237,0.044802 0.329,0.134405 0.092,0.089604 0.139,0.196008 0.139,0.319212 V 11.4748 c 0,0.1232 -0.047,0.2296 -0.139,0.3192 -0.092,0.0896 -0.202,0.1345 -0.329,0.1345 z"
       inkscape:connector-curvature="0" />
    <path
       id="path19_fill"
       d="m 126.246,11.9285 c -0.196,0 -0.346,-0.0505 -0.45,-0.1513 -0.103,-0.1008 -0.178,-0.1792 -0.225,-0.2352 l -4.846,-6.98903 v 6.92183 c 0,0.1232 -0.047,0.2296 -0.139,0.3192 -0.092,0.0896 -0.202,0.1345 -0.329,0.1345 h -1.402 c -0.127,0 -0.236,-0.0449 -0.329,-0.1345 -0.092,-0.0896 -0.138,-0.196 -0.138,-0.3192 V 0.621623 c 0,-0.123204 0.046,-0.229608 0.138,-0.319212 0.093,-0.089603 0.202,-0.134405 0.329,-0.134405 h 1.212 c 0.196,0 0.346,0.050402 0.45,0.151206 0.104,0.100804 0.179,0.179207 0.225,0.235209 l 4.847,6.989059 V 0.621623 c 0,-0.123204 0.046,-0.229608 0.138,-0.319212 0.092,-0.089603 0.202,-0.134405 0.329,-0.134405 h 1.402 c 0.127,0 0.237,0.044802 0.329,0.134405 0.092,0.089604 0.139,0.196008 0.139,0.319212 V 11.4748 c 0,0.1232 -0.047,0.2296 -0.139,0.3192 -0.092,0.0896 -0.202,0.1345 -0.329,0.1345 z"
       inkscape:connector-curvature="0" />
    <clipPath
       id="clip-0-2"
       style="clip-rule:evenodd">
      <path
         d="m -685.159,-747 h 144 v 40 h -144 z"
         id="path6-3"
         inkscape:connector-curvature="0"
         style="fill:#ffffff" />
    </clipPath>
  </defs>
  <g
     id="Canvas-7"
     transform="translate(654.63644,683.93402)"
     style="fill:#000000;fill-opacity:1">
    <clipPath
       id="clipPath4837"
       style="clip-rule:evenodd">
      <path
         d="m -685.159,-747 h 144 v 40 h -144 z"
         id="path4835"
         inkscape:connector-curvature="0"
         style="fill:#ffffff" />
    </clipPath>
    <g
       id="dib_logo-5"
       clip-path="url(#clip-0-2)"
       style="fill:#000000;fill-opacity:1"
       transform="translate(0,-6)">
      <g
         id="Logo-9"
         style="fill:#000000;fill-opacity:1" />
    </g>
    <g
       id="Bewegung-2"
       style="fill:#000000;fill-opacity:1"
       transform="translate(1.2685996,-8.6441371)">
      <use
         xlink:href="#path0_fill"
         transform="translate(-685.127,-723.255)"
         id="use9-2"
         style="fill:#000000;fill-opacity:1"
         x="0"
         y="0"
         width="100%"
         height="100%" />
      <use
         xlink:href="#path1_fill"
         transform="translate(-685.127,-723.255)"
         id="use11-8"
         style="fill:#000000;fill-opacity:1"
         x="0"
         y="0"
         width="100%"
         height="100%" />
      <use
         xlink:href="#path2_fill"
         transform="translate(-685.127,-723.255)"
         id="use13-9"
         style="fill:#000000;fill-opacity:1"
         x="0"
         y="0"
         width="100%"
         height="100%" />
      <use
         xlink:href="#path3_fill"
         transform="translate(-685.127,-723.255)"
         id="use15-7"
         style="fill:#000000;fill-opacity:1"
         x="0"
         y="0"
         width="100%"
         height="100%" />
      <use
         xlink:href="#path4_fill"
         transform="translate(-685.127,-723.255)"
         id="use17-3"
         style="fill:#000000;fill-opacity:1"
         x="0"
         y="0"
         width="100%"
         height="100%" />
      <use
         xlink:href="#path5_fill"
         transform="translate(-685.127,-723.255)"
         id="use19-6"
         style="fill:#000000;fill-opacity:1"
         x="0"
         y="0"
         width="100%"
         height="100%" />
      <use
         xlink:href="#path6_fill"
         transform="translate(-685.127,-723.255)"
         id="use21-1"
         style="fill:#000000;fill-opacity:1"
         x="0"
         y="0"
         width="100%"
         height="100%" />
      <use
         xlink:href="#path7_fill"
         transform="translate(-685.127,-723.255)"
         id="use23-2"
         style="fill:#000000;fill-opacity:1"
         x="0"
         y="0"
         width="100%"
         height="100%" />
    </g>
    <g
       transform="translate(-17.28287,-5.4456071)"
       id="Demokratie in-9"
       style="fill:#000000;fill-opacity:1">
      <use
         xlink:href="#path8_fill"
         transform="translate(-685.159,-743)"
         id="use26-3"
         style="fill:#000000;fill-opacity:1"
         x="0"
         y="0"
         width="100%"
         height="100%" />
      <use
         xlink:href="#path9_fill"
         transform="translate(-685.159,-743)"
         id="use28-1"
         style="fill:#000000;fill-opacity:1"
         x="0"
         y="0"
         width="100%"
         height="100%" />
      <use
         xlink:href="#path10_fill"
         transform="translate(-685.159,-743)"
         id="use30-9"
         style="fill:#000000;fill-opacity:1"
         x="0"
         y="0"
         width="100%"
         height="100%" />
      <use
         xlink:href="#path11_fill"
         transform="translate(-685.159,-743)"
         id="use32-4"
         style="fill:#000000;fill-opacity:1"
         x="0"
         y="0"
         width="100%"
         height="100%" />
      <use
         xlink:href="#path12_fill"
         transform="translate(-685.159,-743)"
         id="use34-7"
         style="fill:#000000;fill-opacity:1"
         x="0"
         y="0"
         width="100%"
         height="100%" />
      <use
         xlink:href="#path13_fill"
         transform="translate(-685.159,-743)"
         id="use36-8"
         style="fill:#000000;fill-opacity:1"
         x="0"
         y="0"
         width="100%"
         height="100%" />
      <use
         xlink:href="#path14_fill"
         transform="translate(-685.159,-743)"
         id="use38-4"
         style="fill:#000000;fill-opacity:1"
         x="0"
         y="0"
         width="100%"
         height="100%" />
      <use
         xlink:href="#path15_fill"
         transform="translate(-685.159,-743)"
         id="use40-5"
         style="fill:#000000;fill-opacity:1"
         x="0"
         y="0"
         width="100%"
         height="100%" />
      <use
         xlink:href="#path16_fill"
         transform="translate(-685.159,-743)"
         id="use42-0"
         style="fill:#000000;fill-opacity:1"
         x="0"
         y="0"
         width="100%"
         height="100%" />
      <use
         xlink:href="#path17_fill"
         transform="translate(-685.159,-743)"
         id="use44-3"
         style="fill:#000000;fill-opacity:1"
         x="0"
         y="0"
         width="100%"
         height="100%" />
      <use
         xlink:href="#path18_fill"
         transform="translate(-798.81341,-722.74265)"
         id="use46-6"
         style="fill:#000000;fill-opacity:1"
         x="0"
         y="0"
         width="100%"
         height="100%" />
      <use
         xlink:href="#path19_fill"
         transform="translate(-798.81341,-722.74265)"
         id="use48-1"
         style="fill:#000000;fill-opacity:1"
         x="0"
         y="0"
         width="100%"
         height="100%" />
    </g>
  </g>
  <g
     id="Bewegung-2-0"
     style="fill:#000000;fill-opacity:1"
     transform="translate(466.24306,677.72078)">
    <use
       xlink:href="#path0_fill"
       transform="translate(-685.127,-723.255)"
       id="use9-2-6"
       style="fill:#000000;fill-opacity:1"
       x="0"
       y="0"
       width="100%"
       height="100%" />
    <use
       xlink:href="#path1_fill"
       transform="translate(-685.127,-723.255)"
       id="use11-8-3"
       style="fill:#000000;fill-opacity:1"
       x="0"
       y="0"
       width="100%"
       height="100%" />
    <use
       xlink:href="#path2_fill"
       transform="translate(-685.127,-723.255)"
       id="use13-9-2"
       style="fill:#000000;fill-opacity:1"
       x="0"
       y="0"
       width="100%"
       height="100%" />
    <use
       xlink:href="#path3_fill"
       transform="translate(-685.127,-723.255)"
       id="use15-7-0"
       style="fill:#000000;fill-opacity:1"
       x="0"
       y="0"
       width="100%"
       height="100%" />
    <use
       xlink:href="#path4_fill"
       transform="translate(-685.127,-723.255)"
       id="use17-3-6"
       style="fill:#000000;fill-opacity:1"
       x="0"
       y="0"
       width="100%"
       height="100%" />
    <use
       xlink:href="#path5_fill"
       transform="translate(-685.127,-723.255)"
       id="use19-6-1"
       style="fill:#000000;fill-opacity:1"
       x="0"
       y="0"
       width="100%"
       height="100%" />
    <use
       xlink:href="#path6_fill"
       transform="translate(-685.127,-723.255)"
       id="use21-1-5"
       style="fill:#000000;fill-opacity:1"
       x="0"
       y="0"
       width="100%"
       height="100%" />
    <use
       xlink:href="#path7_fill"
       transform="translate(-685.127,-723.255)"
       id="use23-2-5"
       style="fill:#000000;fill-opacity:1"
       x="0"
       y="0"
       width="100%"
       height="100%" />
  </g>
  <g
     transform="translate(447.69159,680.91931)"
     id="Demokratie in-9-4"
     style="fill:#000000;fill-opacity:1">
    <use
       xlink:href="#path8_fill"
       transform="translate(-666.82076,-742.78676)"
       id="use26-3-7"
       style="fill:#000000;fill-opacity:1"
       x="0"
       y="0"
       width="100%"
       height="100%" />
    <use
       xlink:href="#path9_fill"
       transform="translate(-666.82076,-742.78676)"
       id="use28-1-6"
       style="fill:#000000;fill-opacity:1"
       x="0"
       y="0"
       width="100%"
       height="100%" />
    <use
       xlink:href="#path10_fill"
       transform="translate(-666.82076,-742.78676)"
       id="use30-9-5"
       style="fill:#000000;fill-opacity:1"
       x="0"
       y="0"
       width="100%"
       height="100%" />
    <use
       xlink:href="#path11_fill"
       transform="translate(-666.82076,-742.78676)"
       id="use32-4-6"
       style="fill:#000000;fill-opacity:1"
       x="0"
       y="0"
       width="100%"
       height="100%" />
    <use
       xlink:href="#path12_fill"
       transform="translate(-666.82076,-742.78676)"
       id="use34-7-9"
       style="fill:#000000;fill-opacity:1"
       x="0"
       y="0"
       width="100%"
       height="100%" />
    <use
       xlink:href="#path13_fill"
       transform="translate(-666.82076,-742.78676)"
       id="use36-8-3"
       style="fill:#000000;fill-opacity:1"
       x="0"
       y="0"
       width="100%"
       height="100%" />
    <use
       xlink:href="#path14_fill"
       transform="translate(-666.82076,-742.78676)"
       id="use38-4-7"
       style="fill:#000000;fill-opacity:1"
       x="0"
       y="0"
       width="100%"
       height="100%" />
    <use
       xlink:href="#path15_fill"
       transform="translate(-666.82076,-742.78676)"
       id="use40-5-4"
       style="fill:#000000;fill-opacity:1"
       x="0"
       y="0"
       width="100%"
       height="100%" />
    <use
       xlink:href="#path16_fill"
       transform="translate(-666.82076,-742.78676)"
       id="use42-0-5"
       style="fill:#000000;fill-opacity:1"
       x="0"
       y="0"
       width="100%"
       height="100%" />
    <use
       xlink:href="#path17_fill"
       transform="translate(-666.82076,-742.78676)"
       id="use44-3-2"
       style="fill:#000000;fill-opacity:1"
       x="0"
       y="0"
       width="100%"
       height="100%" />
    <use
       xlink:href="#path18_fill"
       transform="matrix(0.75276224,0,0,0.75276224,-642.44262,-739.5467)"
       id="use46-6-5"
       style="fill:#000000;fill-opacity:1"
       x="0"
       y="0"
       width="100%"
       height="100%" />
    <use
       xlink:href="#path19_fill"
       transform="matrix(0.75276224,0,0,0.75276224,-642.44262,-739.5467)"
       id="use48-1-4"
       style="fill:#000000;fill-opacity:1"
       x="0"
       y="0"
       width="100%"
       height="100%" />
  </g>
  <g
     id="Bewegung-2-0-7"
     style="fill:#000000;fill-opacity:1"
     transform="translate(466.66953,741.9046)">
    <use
       xlink:href="#path0_fill"
       transform="translate(-685.127,-723.255)"
       id="use9-2-6-4"
       style="fill:#000000;fill-opacity:1"
       x="0"
       y="0"
       width="100%"
       height="100%" />
    <use
       xlink:href="#path1_fill"
       transform="translate(-685.127,-723.255)"
       id="use11-8-3-4"
       style="fill:#000000;fill-opacity:1"
       x="0"
       y="0"
       width="100%"
       height="100%" />
    <use
       xlink:href="#path2_fill"
       transform="translate(-685.127,-723.255)"
       id="use13-9-2-3"
       style="fill:#000000;fill-opacity:1"
       x="0"
       y="0"
       width="100%"
       height="100%" />
    <use
       xlink:href="#path3_fill"
       transform="translate(-685.127,-723.255)"
       id="use15-7-0-0"
       style="fill:#000000;fill-opacity:1"
       x="0"
       y="0"
       width="100%"
       height="100%" />
    <use
       xlink:href="#path4_fill"
       transform="translate(-685.127,-723.255)"
       id="use17-3-6-7"
       style="fill:#000000;fill-opacity:1"
       x="0"
       y="0"
       width="100%"
       height="100%" />
    <use
       xlink:href="#path5_fill"
       transform="translate(-685.127,-723.255)"
       id="use19-6-1-8"
       style="fill:#000000;fill-opacity:1"
       x="0"
       y="0"
       width="100%"
       height="100%" />
    <use
       xlink:href="#path6_fill"
       transform="translate(-685.127,-723.255)"
       id="use21-1-5-6"
       style="fill:#000000;fill-opacity:1"
       x="0"
       y="0"
       width="100%"
       height="100%" />
    <use
       xlink:href="#path7_fill"
       transform="translate(-685.127,-723.255)"
       id="use23-2-5-8"
       style="fill:#000000;fill-opacity:1"
       x="0"
       y="0"
       width="100%"
       height="100%" />
  </g>
  <g
     transform="matrix(1.079361,0,0,1.079361,501.03759,803.08165)"
     id="Demokratie in-9-4-8"
     style="fill:#000000;fill-opacity:1">
    <use
       xlink:href="#path8_fill"
       transform="translate(-666.82076,-742.78676)"
       id="use26-3-7-4"
       style="fill:#000000;fill-opacity:1"
       x="0"
       y="0"
       width="100%"
       height="100%" />
    <use
       xlink:href="#path9_fill"
       transform="translate(-666.82076,-742.78676)"
       id="use28-1-6-3"
       style="fill:#000000;fill-opacity:1"
       x="0"
       y="0"
       width="100%"
       height="100%" />
    <use
       xlink:href="#path10_fill"
       transform="translate(-666.82076,-742.78676)"
       id="use30-9-5-1"
       style="fill:#000000;fill-opacity:1"
       x="0"
       y="0"
       width="100%"
       height="100%" />
    <use
       xlink:href="#path11_fill"
       transform="translate(-666.82076,-742.78676)"
       id="use32-4-6-4"
       style="fill:#000000;fill-opacity:1"
       x="0"
       y="0"
       width="100%"
       height="100%" />
    <use
       xlink:href="#path12_fill"
       transform="translate(-666.82076,-742.78676)"
       id="use34-7-9-9"
       style="fill:#000000;fill-opacity:1"
       x="0"
       y="0"
       width="100%"
       height="100%" />
    <use
       xlink:href="#path13_fill"
       transform="translate(-666.82076,-742.78676)"
       id="use36-8-3-2"
       style="fill:#000000;fill-opacity:1"
       x="0"
       y="0"
       width="100%"
       height="100%" />
    <use
       xlink:href="#path14_fill"
       transform="translate(-666.82076,-742.78676)"
       id="use38-4-7-0"
       style="fill:#000000;fill-opacity:1"
       x="0"
       y="0"
       width="100%"
       height="100%" />
    <use
       xlink:href="#path15_fill"
       transform="translate(-666.82076,-742.78676)"
       id="use40-5-4-6"
       style="fill:#000000;fill-opacity:1"
       x="0"
       y="0"
       width="100%"
       height="100%" />
    <use
       xlink:href="#path16_fill"
       transform="translate(-666.82076,-742.78676)"
       id="use42-0-5-8"
       style="fill:#000000;fill-opacity:1"
       x="0"
       y="0"
       width="100%"
       height="100%" />
    <use
       xlink:href="#path17_fill"
       transform="translate(-666.82076,-742.78676)"
       id="use44-3-2-9"
       style="fill:#000000;fill-opacity:1"
       x="0"
       y="0"
       width="100%"
       height="100%" />
    <use
       xlink:href="#path18_fill"
       transform="matrix(0.58551317,0,0,0.58551317,-623.49932,-737.55167)"
       id="use46-6-5-2"
       style="fill:#000000;fill-opacity:1"
       x="0"
       y="0"
       width="100%"
       height="100%" />
    <use
       xlink:href="#path19_fill"
       transform="matrix(0.58551317,0,0,0.58551317,-623.49932,-737.55167)"
       id="use48-1-4-6"
       style="fill:#000000;fill-opacity:1"
       x="0"
       y="0"
       width="100%"
       height="100%" />
  </g>
  <g
     id="Bewegung-2-0-7-6"
     style="fill:#000000;fill-opacity:1"
     transform="translate(471.45627,817.68147)">
    <use
       xlink:href="#path0_fill"
       transform="translate(-685.127,-723.255)"
       id="use9-2-6-4-4"
       style="fill:#000000;fill-opacity:1"
       x="0"
       y="0"
       width="100%"
       height="100%" />
    <use
       xlink:href="#path1_fill"
       transform="translate(-685.127,-723.255)"
       id="use11-8-3-4-9"
       style="fill:#000000;fill-opacity:1"
       x="0"
       y="0"
       width="100%"
       height="100%" />
    <use
       xlink:href="#path2_fill"
       transform="translate(-685.127,-723.255)"
       id="use13-9-2-3-5"
       style="fill:#000000;fill-opacity:1"
       x="0"
       y="0"
       width="100%"
       height="100%" />
    <use
       xlink:href="#path3_fill"
       transform="translate(-685.127,-723.255)"
       id="use15-7-0-0-0"
       style="fill:#000000;fill-opacity:1"
       x="0"
       y="0"
       width="100%"
       height="100%" />
    <use
       xlink:href="#path4_fill"
       transform="translate(-685.127,-723.255)"
       id="use17-3-6-7-4"
       style="fill:#000000;fill-opacity:1"
       x="0"
       y="0"
       width="100%"
       height="100%" />
    <use
       xlink:href="#path5_fill"
       transform="translate(-685.127,-723.255)"
       id="use19-6-1-8-8"
       style="fill:#000000;fill-opacity:1"
       x="0"
       y="0"
       width="100%"
       height="100%" />
    <use
       xlink:href="#path6_fill"
       transform="translate(-685.127,-723.255)"
       id="use21-1-5-6-7"
       style="fill:#000000;fill-opacity:1"
       x="0"
       y="0"
       width="100%"
       height="100%" />
    <use
       xlink:href="#path7_fill"
       transform="translate(-685.127,-723.255)"
       id="use23-2-5-8-1"
       style="fill:#000000;fill-opacity:1"
       x="0"
       y="0"
       width="100%"
       height="100%" />
  </g>
  <g
     transform="matrix(1.079361,0,0,1.079361,505.82433,878.85852)"
     id="Demokratie in-9-4-8-7"
     style="fill:#000000;fill-opacity:1">
    <use
       xlink:href="#path8_fill"
       transform="translate(-666.82076,-742.78676)"
       id="use26-3-7-4-2"
       style="fill:#000000;fill-opacity:1"
       x="0"
       y="0"
       width="100%"
       height="100%" />
    <use
       xlink:href="#path9_fill"
       transform="translate(-666.82076,-742.78676)"
       id="use28-1-6-3-7"
       style="fill:#000000;fill-opacity:1"
       x="0"
       y="0"
       width="100%"
       height="100%" />
    <use
       xlink:href="#path10_fill"
       transform="translate(-666.82076,-742.78676)"
       id="use30-9-5-1-2"
       style="fill:#000000;fill-opacity:1"
       x="0"
       y="0"
       width="100%"
       height="100%" />
    <use
       xlink:href="#path11_fill"
       transform="translate(-666.82076,-742.78676)"
       id="use32-4-6-4-2"
       style="fill:#000000;fill-opacity:1"
       x="0"
       y="0"
       width="100%"
       height="100%" />
    <use
       xlink:href="#path12_fill"
       transform="translate(-666.82076,-742.78676)"
       id="use34-7-9-9-6"
       style="fill:#000000;fill-opacity:1"
       x="0"
       y="0"
       width="100%"
       height="100%" />
    <use
       xlink:href="#path13_fill"
       transform="translate(-666.82076,-742.78676)"
       id="use36-8-3-2-1"
       style="fill:#000000;fill-opacity:1"
       x="0"
       y="0"
       width="100%"
       height="100%" />
    <use
       xlink:href="#path14_fill"
       transform="translate(-666.82076,-742.78676)"
       id="use38-4-7-0-0"
       style="fill:#000000;fill-opacity:1"
       x="0"
       y="0"
       width="100%"
       height="100%" />
    <use
       xlink:href="#path15_fill"
       transform="translate(-666.82076,-742.78676)"
       id="use40-5-4-6-6"
       style="fill:#000000;fill-opacity:1"
       x="0"
       y="0"
       width="100%"
       height="100%" />
    <use
       xlink:href="#path16_fill"
       transform="translate(-666.82076,-742.78676)"
       id="use42-0-5-8-1"
       style="fill:#000000;fill-opacity:1"
       x="0"
       y="0"
       width="100%"
       height="100%" />
    <use
       xlink:href="#path17_fill"
       transform="translate(-666.82076,-742.78676)"
       id="use44-3-2-9-5"
       style="fill:#000000;fill-opacity:1"
       x="0"
       y="0"
       width="100%"
       height="100%" />
    <use
       xlink:href="#path18_fill"
       transform="matrix(0.58551317,0,0,0.58551317,-623.49932,-737.55167)"
       id="use46-6-5-2-9"
       style="fill:#000000;fill-opacity:1"
       x="0"
       y="0"
       width="100%"
       height="100%" />
    <use
       xlink:href="#path19_fill"
       transform="matrix(0.58551317,0,0,0.58551317,-623.49932,-737.55167)"
       id="use48-1-4-6-4"
       style="fill:#000000;fill-opacity:1"
       x="0"
       y="0"
       width="100%"
       height="100%" />
  </g>
  <g
     aria-label="DEMOKRATIE
IN BEWEGUNG"
     style="font-style:normal;font-variant:normal;font-weight:normal;font-stretch:normal;font-size:20.98262215px;line-height:13.1141386px;font-family:Rubik;-inkscape-font-specification:Rubik;letter-spacing:0px;word-spacing:0px;fill:#000000;fill-opacity:1;stroke:none;stroke-width:0.52456558px;stroke-linecap:butt;stroke-linejoin:miter;stroke-opacity:1"
     id="text5318"
     transform="translate(0,1.573851)">
    <g
       id="g5428"
       transform="translate(0,-2)">
      <path
         id="path5355"
         style="font-style:normal;font-variant:normal;font-weight:300;font-stretch:normal;line-height:19.05288124px;font-family:Rubik;-inkscape-font-specification:'Rubik Light';letter-spacing:0px;word-spacing:0px;stroke-width:0.52456558px"
         d="m 7.4052344,3.0552942 q 1.6576271,0 2.7697066,0.3776872 1.112078,0.3567046 1.783522,1.0910964 0.671444,0.7134091 0.965201,1.7835229 0.293757,1.0491311 0.314739,2.4130015 0.02098,0.944218 0.02098,1.6786098 0,0.713409 -0.02098,1.657627 -0.04196,1.447801 -0.335722,2.517915 -0.272774,1.070114 -0.944218,1.783523 -0.650461,0.692426 -1.741557,1.049131 Q 9.1258094,17.74313 7.5101475,17.74313 H 2.9359359 q -0.4616177,0 -0.4616177,-0.461618 V 3.5378945 q 0,-0.4826003 0.4616177,-0.4826003 z M 11.916498,8.8255153 Q 11.895516,7.6714711 11.643724,6.8321662 11.391933,5.9718787 10.846384,5.4263305 10.300836,4.8597997 9.4195661,4.5870256 8.5592786,4.3142516 7.3003213,4.3142516 H 3.7962234 V 16.484172 h 3.609011 q 1.2589573,0 2.0982622,-0.251791 0.8602874,-0.251792 1.3848534,-0.776357 0.524565,-0.545548 0.755374,-1.405836 0.251792,-0.860287 0.272774,-2.098262 0,-0.461618 0,-0.839305 0.02098,-0.377687 0.02098,-0.713409 0,-0.356705 -0.02098,-0.7134092 0,-0.3776872 0,-0.8602875 z"
         inkscape:connector-curvature="0" />
      <path
         id="path5357"
         style="font-style:normal;font-variant:normal;font-weight:300;font-stretch:normal;line-height:19.05288124px;font-family:Rubik;-inkscape-font-specification:'Rubik Light';letter-spacing:0px;word-spacing:0px;stroke-width:0.52456558px"
         d="m 25.507663,16.484172 q 0.482601,0 0.482601,0.482601 v 0.314739 q 0,0.461618 -0.482601,0.461618 H 17.15658 q -0.461618,0 -0.461618,-0.461618 V 3.5378945 q 0,-0.4826003 0.461618,-0.4826003 h 8.183222 q 0.482601,0 0.482601,0.4826003 v 0.3147394 q 0,0.4616177 -0.482601,0.4616177 h -7.322935 v 5.3505686 h 6.861318 q 0.4826,0 0.4826,0.4826008 v 0.314739 q 0,0.461618 -0.4826,0.461618 h -6.861318 v 5.560394 z"
         inkscape:connector-curvature="0" />
      <path
         id="path5359"
         style="font-style:normal;font-variant:normal;font-weight:300;font-stretch:normal;line-height:19.05288124px;font-family:Rubik;-inkscape-font-specification:'Rubik Light';letter-spacing:0px;word-spacing:0px;stroke-width:0.52456558px"
         d="m 35.092459,14.218049 q -0.461617,0 -0.650461,-0.419652 L 30.434317,5.9089308 V 17.281512 q 0,0.461618 -0.461617,0.461618 h -0.377688 q -0.4826,0 -0.4826,-0.461618 V 3.5378945 q 0,-0.4826003 0.4826,-0.4826003 h 0.524566 q 0.209826,0 0.293757,0.1049131 0.104913,0.1049131 0.146878,0.167861 l 4.763055,9.2743187 4.784038,-9.2743187 q 0.04196,-0.062948 0.125896,-0.167861 0.104913,-0.1049131 0.314739,-0.1049131 h 0.503583 q 0.4826,0 0.4826,0.4826003 V 17.281512 q 0,0.461618 -0.4826,0.461618 h -0.377687 q -0.461618,0 -0.461618,-0.461618 V 5.9089308 l -4.007681,7.8894662 q -0.188843,0.419652 -0.650461,0.419652 z"
         inkscape:connector-curvature="0" />
      <path
         id="path5361"
         style="font-style:normal;font-variant:normal;font-weight:300;font-stretch:normal;line-height:19.05288124px;font-family:Rubik;-inkscape-font-specification:'Rubik Light';letter-spacing:0px;word-spacing:0px;stroke-width:0.52456558px"
         d="m 50.436984,2.845468 q 1.216992,0 2.224158,0.3567046 1.007166,0.3567046 1.720575,1.0910963 0.734392,0.7134092 1.133061,1.8045055 0.419653,1.0701138 0.461618,2.5388973 0.04196,0.944218 0.04196,1.7625403 0,0.818322 -0.04196,1.76254 -0.08393,2.979533 -1.510749,4.385368 -1.426818,1.405836 -4.028663,1.405836 -2.622828,0 -4.049646,-1.405836 -1.405836,-1.405835 -1.489766,-4.385368 -0.04197,-0.944218 -0.04197,-1.76254 0,-0.8183223 0.04197,-1.7625403 0.04197,-1.4687835 0.440635,-2.5388973 Q 45.757859,5.0066781 46.471268,4.2932689 47.20566,3.5588772 48.191843,3.2021726 49.199009,2.845468 50.436984,2.845468 Z m 0,1.2589573 q -0.88127,0 -1.636645,0.2727741 -0.755374,0.2517915 -1.321905,0.8183223 -0.566531,0.5665308 -0.902253,1.4478009 -0.314739,0.8812701 -0.356704,2.0982622 -0.02098,0.4826003 -0.04196,0.8812702 0,0.39867 0,0.776357 0,0.377687 0,0.79734 0.02098,0.398669 0.04196,0.860287 0.04197,1.237975 0.356704,2.119245 0.335722,0.860287 0.881271,1.426818 0.56653,0.566531 1.321905,0.839305 0.755374,0.251792 1.657627,0.251792 0.902253,0 1.657627,-0.251792 0.755374,-0.272774 1.300923,-0.839305 0.56653,-0.566531 0.88127,-1.426818 0.335722,-0.88127 0.377687,-2.119245 0.02098,-0.461618 0.02098,-0.860287 0,-0.419653 0,-0.79734 0,-0.377687 0,-0.776357 0,-0.3986699 -0.02098,-0.8812702 Q 54.612526,7.5245927 54.276804,6.6433226 53.962064,5.7620525 53.395534,5.1955217 52.829003,4.6289909 52.073628,4.3771994 51.318254,4.1044253 50.436984,4.1044253 Z"
         inkscape:connector-curvature="0" />
      <path
         id="path5363"
         style="font-style:normal;font-variant:normal;font-weight:300;font-stretch:normal;line-height:19.05288124px;font-family:Rubik;-inkscape-font-specification:'Rubik Light';letter-spacing:0px;word-spacing:0px;stroke-width:0.52456558px"
         d="m 60.678799,8.9933763 6.357735,-5.6233427 q 0.08393,-0.062948 0.272774,-0.1888436 0.188844,-0.1258958 0.524566,-0.1258958 h 0.335721 q 0.167861,0 0.293757,0.1258958 0.125896,0.1258957 0.125896,0.2937567 0,0.1678609 -0.104913,0.2727741 l -7.113109,6.3367522 7.553744,6.945248 q 0.125896,0.125895 0.125896,0.293756 0,0.167861 -0.125896,0.293757 -0.125896,0.125896 -0.293757,0.125896 h -0.356704 q -0.335722,0 -0.524566,-0.125896 -0.188844,-0.125896 -0.272774,-0.188844 l -6.79837,-6.210856 v 6.063978 q 0,0.461618 -0.4826,0.461618 h -0.377687 q -0.461618,0 -0.461618,-0.461618 V 3.5378945 q 0,-0.4826003 0.461618,-0.4826003 h 0.377687 q 0.4826,0 0.4826,0.4826003 z"
         inkscape:connector-curvature="0" />
      <path
         id="path5365"
         style="font-style:normal;font-variant:normal;font-weight:300;font-stretch:normal;line-height:19.05288124px;font-family:Rubik;-inkscape-font-specification:'Rubik Light';letter-spacing:0px;word-spacing:0px;stroke-width:0.52456558px"
         d="m 76.756077,3.0552942 q 2.203176,0 3.504098,1.0491311 1.321905,1.0491311 1.321905,3.1893586 0,1.6995924 -0.839304,2.7067581 -0.818323,0.986183 -2.329072,1.342888 l 3.378203,5.749238 q 0.06295,0.125896 0.06295,0.230809 0,0.167861 -0.125895,0.293757 -0.125896,0.125896 -0.293757,0.125896 h -0.251791 q -0.356705,0 -0.524566,-0.167861 -0.146878,-0.167861 -0.272774,-0.39867 l -3.336237,-5.644325 h -4.32242 v 5.749238 q 0,0.461618 -0.4826,0.461618 h -0.377688 q -0.461617,0 -0.461617,-0.461618 V 3.5378945 q 0,-0.4826003 0.461617,-0.4826003 z m -4.028663,7.2180218 h 3.92375 q 3.609011,0 3.609011,-2.9795321 0,-2.9795323 -3.609011,-2.9795323 h -3.92375 z"
         inkscape:connector-curvature="0" />
      <path
         id="path5367"
         style="font-style:normal;font-variant:normal;font-weight:300;font-stretch:normal;line-height:19.05288124px;font-family:Rubik;-inkscape-font-specification:'Rubik Light';letter-spacing:0px;word-spacing:0px;stroke-width:0.52456558px"
         d="m 93.408412,14.071171 h -7.427848 l -1.300923,3.357219 q -0.04197,0.08393 -0.146878,0.209827 -0.104913,0.104913 -0.314739,0.104913 h -0.419653 q -0.167861,0 -0.293756,-0.125896 -0.125896,-0.125896 -0.125896,-0.293757 0,-0.104913 0.04196,-0.230809 L 88.729287,3.4749467 q 0.08393,-0.2098263 0.209827,-0.3147394 0.146878,-0.1049131 0.39867,-0.1049131 h 0.713409 q 0.251791,0 0.377687,0.1049131 0.146878,0.1049131 0.230809,0.3147394 l 5.308603,13.6177213 q 0.04196,0.125896 0.04196,0.230809 0,0.167861 -0.125895,0.293757 -0.125896,0.125896 -0.293757,0.125896 h -0.419653 q -0.209826,0 -0.314739,-0.104913 Q 94.7513,17.512321 94.709335,17.42839 Z m -6.924265,-1.258957 h 6.420682 L 89.694488,4.5450604 Z"
         inkscape:connector-curvature="0" />
      <path
         id="path5369"
         style="font-style:normal;font-variant:normal;font-weight:300;font-stretch:normal;line-height:19.05288124px;font-family:Rubik;-inkscape-font-specification:'Rubik Light';letter-spacing:0px;word-spacing:0px;stroke-width:0.52456558px"
         d="m 105.60292,3.0552942 q 0.48261,0 0.48261,0.4826003 v 0.3147394 q 0,0.4616177 -0.48261,0.4616177 h -4.13357 V 17.281512 q 0,0.461618 -0.4826,0.461618 h -0.37769 q -0.46162,0 -0.46162,-0.461618 V 4.3142516 h -4.154556 q -0.461618,0 -0.461618,-0.4616177 V 3.5378945 q 0,-0.4826003 0.461618,-0.4826003 z"
         inkscape:connector-curvature="0" />
      <path
         id="path5371"
         style="font-style:normal;font-variant:normal;font-weight:300;font-stretch:normal;line-height:19.05288124px;font-family:Rubik;-inkscape-font-specification:'Rubik Light';letter-spacing:0px;word-spacing:0px;stroke-width:0.52456558px"
         d="m 109.93879,17.281512 q 0,0.461618 -0.46162,0.461618 h -0.39867 q -0.46162,0 -0.46162,-0.461618 V 3.5169119 q 0,-0.4616177 0.46162,-0.4616177 h 0.39867 q 0.46162,0 0.46162,0.4616177 z"
         inkscape:connector-curvature="0" />
      <path
         id="path5373"
         style="font-style:normal;font-variant:normal;font-weight:300;font-stretch:normal;line-height:19.05288124px;font-family:Rubik;-inkscape-font-specification:'Rubik Light';letter-spacing:0px;word-spacing:0px;stroke-width:0.52456558px"
         d="m 122.71622,16.484172 q 0.4826,0 0.4826,0.482601 v 0.314739 q 0,0.461618 -0.4826,0.461618 h -8.35108 q -0.46162,0 -0.46162,-0.461618 V 3.5378945 q 0,-0.4826003 0.46162,-0.4826003 h 8.18322 q 0.4826,0 0.4826,0.4826003 v 0.3147394 q 0,0.4616177 -0.4826,0.4616177 h -7.32294 v 5.3505686 h 6.86132 q 0.4826,0 0.4826,0.4826008 v 0.314739 q 0,0.461618 -0.4826,0.461618 h -6.86132 v 5.560394 z"
         inkscape:connector-curvature="0" />
    </g>
    <g
       id="g5416">
      <path
         inkscape:connector-curvature="0"
         id="path5375"
         style="font-size:10.66666698px;stroke-width:0.52456558px"
         d="m 3.1777001,36.615667 q 0,0.234667 -0.2346667,0.234667 H 2.7403668 q -0.2346667,0 -0.2346667,-0.234667 v -6.997333 q 0,-0.234667 0.2346667,-0.234667 h 0.2026666 q 0.2346667,0 0.2346667,0.234667 z" />
      <path
         inkscape:connector-curvature="0"
         id="path5377"
         style="font-size:10.66666698px;stroke-width:0.52456558px"
         d="m 5.8652001,30.727667 v 5.888 q 0,0.234667 -0.2453333,0.234667 h -0.192 q -0.2346667,0 -0.2346667,-0.234667 V 29.629 q 0,-0.245333 0.2346667,-0.245333 h 0.224 q 0.1066666,0 0.1493333,0.05333 0.053333,0.05333 0.074667,0.07467 l 3.9360011,6.016 V 29.629 q 0,-0.245333 0.2346658,-0.245333 h 0.192 q 0.245334,0 0.245334,0.245333 v 6.976 q 0,0.245334 -0.234667,0.245334 h -0.234667 q -0.1066668,0 -0.1599998,-0.05333 -0.04267,-0.05333 -0.064,-0.07467 z" />
    </g>
    <g
       id="g5412"
       transform="translate(-0.05748968,0.0150321)">
      <path
         inkscape:connector-curvature="0"
         id="path5379"
         style="font-style:normal;font-variant:normal;font-weight:300;font-stretch:normal;line-height:19.05288124px;font-family:Rubik;-inkscape-font-specification:'Rubik Light';letter-spacing:0px;word-spacing:0px;stroke-width:0.52456558px"
         d="m 15.318596,36.781972 q -0.461618,0 -0.461618,-0.461618 V 22.576737 q 0,-0.482601 0.461618,-0.482601 h 5.476464 q 1.091097,0 1.888436,0.31474 0.79734,0.293756 1.321905,0.818322 0.524566,0.524565 0.755375,1.196009 0.251791,0.671444 0.251791,1.426819 0,0.671444 -0.167861,1.196009 -0.167861,0.524566 -0.440635,0.923236 -0.272774,0.398669 -0.608496,0.671443 -0.314739,0.251792 -0.629478,0.39867 0.419652,0.209826 0.797339,0.545548 0.39867,0.335722 0.692427,0.79734 0.293756,0.461618 0.461617,1.028149 0.188844,0.56653 0.188844,1.216992 0,0.797339 -0.293757,1.552714 -0.272774,0.734391 -0.818322,1.321905 -0.545548,0.587513 -1.36387,0.944218 -0.818323,0.335722 -1.888436,0.335722 z m 0.860287,-13.428878 v 5.119759 h 4.343403 q 1.573697,0 2.371036,-0.671443 0.79734,-0.692427 0.79734,-1.951384 0,-2.496932 -3.168376,-2.496932 z m 0,6.378717 v 5.791203 h 4.553229 q 1.573697,0 2.413002,-0.818322 0.839305,-0.818322 0.839305,-2.077279 0,-1.27994 -0.839305,-2.07728 -0.839305,-0.818322 -2.413002,-0.818322 z" />
      <path
         inkscape:connector-curvature="0"
         id="path5381"
         style="font-style:normal;font-variant:normal;font-weight:300;font-stretch:normal;line-height:19.05288124px;font-family:Rubik;-inkscape-font-specification:'Rubik Light';letter-spacing:0px;word-spacing:0px;stroke-width:0.52456558px"
         d="m 37.357562,35.523014 q 0.4826,0 0.4826,0.482601 v 0.314739 q 0,0.461618 -0.4826,0.461618 h -8.351084 q -0.461617,0 -0.461617,-0.461618 V 22.576737 q 0,-0.482601 0.461617,-0.482601 h 8.183223 q 0.4826,0 0.4826,0.482601 v 0.314739 q 0,0.461618 -0.4826,0.461618 h -7.322935 v 5.350568 h 6.861317 q 0.482601,0 0.482601,0.482601 v 0.314739 q 0,0.461618 -0.482601,0.461618 h -6.861317 v 5.560394 z" />
      <path
         inkscape:connector-curvature="0"
         id="path5383"
         style="font-style:normal;font-variant:normal;font-weight:300;font-stretch:normal;line-height:19.05288124px;font-family:Rubik;-inkscape-font-specification:'Rubik Light';letter-spacing:0px;word-spacing:0px;stroke-width:0.52456558px"
         d="m 50.740212,34.36897 2.454967,-11.960094 q 0.06295,-0.31474 0.461618,-0.31474 h 0.440635 q 0.167861,0 0.293757,0.125896 0.125895,0.125896 0.125895,0.293757 0,0.04197 -0.04196,0.251791 l -2.874619,13.512809 q -0.125896,0.503583 -0.587513,0.503583 h -0.31474 q -0.503583,0 -0.650461,-0.503583 l -2.790689,-8.854667 -2.790689,8.854667 q -0.167861,0.503583 -0.650461,0.503583 h -0.314739 q -0.461618,0 -0.587514,-0.503583 L 40.039075,22.76558 q -0.04196,-0.209826 -0.04196,-0.251791 0,-0.167861 0.125896,-0.293757 0.125895,-0.125896 0.293756,-0.125896 h 0.440635 q 0.39867,0 0.461618,0.31474 l 2.454967,11.960094 2.601845,-8.539927 q 0.06295,-0.188844 0.209826,-0.335722 0.146879,-0.146878 0.440635,-0.146878 h 0.461618 q 0.293757,0 0.440635,0.146878 0.146878,0.146878 0.209826,0.335722 z" />
      <path
         inkscape:connector-curvature="0"
         id="path5385"
         style="font-style:normal;font-variant:normal;font-weight:300;font-stretch:normal;line-height:19.05288124px;font-family:Rubik;-inkscape-font-specification:'Rubik Light';letter-spacing:0px;word-spacing:0px;stroke-width:0.52456558px"
         d="m 66.290633,35.523014 q 0.4826,0 0.4826,0.482601 v 0.314739 q 0,0.461618 -0.4826,0.461618 h -8.351084 q -0.461617,0 -0.461617,-0.461618 V 22.576737 q 0,-0.482601 0.461617,-0.482601 h 8.183223 q 0.4826,0 0.4826,0.482601 v 0.314739 q 0,0.461618 -0.4826,0.461618 h -7.322935 v 5.350568 h 6.861317 q 0.482601,0 0.482601,0.482601 v 0.314739 q 0,0.461618 -0.482601,0.461618 h -6.861317 v 5.560394 z" />
      <path
         inkscape:connector-curvature="0"
         id="path5387"
         style="font-style:normal;font-variant:normal;font-weight:300;font-stretch:normal;line-height:19.05288124px;font-family:Rubik;-inkscape-font-specification:'Rubik Light';letter-spacing:0px;word-spacing:0px;stroke-width:0.52456558px"
         d="m 74.767286,23.143267 q -0.944218,0 -1.720575,0.251792 -0.755375,0.230809 -1.321905,0.776357 -0.545549,0.524565 -0.881271,1.36387 -0.314739,0.839305 -0.356704,2.014332 -0.06295,1.888436 0,3.776872 0.04197,1.175027 0.356704,2.014332 0.335722,0.839305 0.881271,1.384853 0.56653,0.524565 1.321905,0.776357 0.776357,0.230809 1.720575,0.230809 0.923235,0 1.720575,-0.251792 0.797339,-0.272774 1.36387,-0.797339 0.587514,-0.545549 0.923236,-1.384853 0.335722,-0.839305 0.335722,-1.972367 v -1.070114 h -3.650977 q -0.461617,0 -0.461617,-0.4826 v -0.293757 q 0,-0.4826 0.461617,-0.4826 h 4.490281 q 0.482601,0 0.482601,0.4826 v 1.846471 q 0,1.258957 -0.377687,2.308089 -0.377688,1.028148 -1.112079,1.783522 -0.71341,0.755375 -1.783523,1.175027 -1.049131,0.39867 -2.392019,0.39867 -1.363871,0 -2.392019,-0.39867 -1.028149,-0.419652 -1.741558,-1.154044 -0.692426,-0.734392 -1.070113,-1.741558 -0.356705,-1.028148 -0.39867,-2.266123 -0.04197,-0.944218 -0.04197,-1.993349 0,-1.049131 0.04197,-1.993349 0.04197,-1.237975 0.419652,-2.245141 0.377687,-1.028148 1.070114,-1.76254 0.713409,-0.734392 1.741558,-1.133061 1.028148,-0.419653 2.371036,-0.419653 1.447801,0 2.475949,0.440635 1.028149,0.440635 1.67861,1.049131 0.650461,0.608496 0.965201,1.27994 0.314739,0.671444 0.335722,1.112079 0.02098,0.188844 -0.104914,0.31474 -0.125895,0.104913 -0.335721,0.104913 h -0.461618 q -0.188844,0 -0.272774,-0.08393 -0.08393,-0.104913 -0.167861,-0.335722 -0.167861,-0.4826 -0.482601,-0.944218 -0.293756,-0.4826 -0.797339,-0.839305 -0.503583,-0.377687 -1.19601,-0.608496 -0.692426,-0.230809 -1.636644,-0.230809 z" />
      <path
         inkscape:connector-curvature="0"
         id="path5389"
         style="font-style:normal;font-variant:normal;font-weight:300;font-stretch:normal;line-height:19.05288124px;font-family:Rubik;-inkscape-font-specification:'Rubik Light';letter-spacing:0px;word-spacing:0px;stroke-width:0.52456558px"
         d="m 93.023475,22.576737 q 0,-0.482601 0.482601,-0.482601 h 0.377687 q 0.461617,0 0.461617,0.482601 v 8.518944 q 0,3.063463 -1.405835,4.490281 -1.405836,1.405836 -3.986698,1.405836 -1.27994,0 -2.287106,-0.335722 -1.007166,-0.356704 -1.699593,-1.070114 -0.692426,-0.734391 -1.070113,-1.84647 -0.356705,-1.112079 -0.356705,-2.643811 v -8.518944 q 0,-0.482601 0.461618,-0.482601 h 0.377687 q 0.4826,0 0.4826,0.482601 v 8.581892 q 0,2.371036 1.091097,3.483115 1.112079,1.091097 3.000515,1.091097 1.888436,0 2.979532,-1.091097 1.091096,-1.112079 1.091096,-3.483115 z" />
      <path
         inkscape:connector-curvature="0"
         id="path5391"
         style="font-style:normal;font-variant:normal;font-weight:300;font-stretch:normal;line-height:19.05288124px;font-family:Rubik;-inkscape-font-specification:'Rubik Light';letter-spacing:0px;word-spacing:0px;stroke-width:0.52456558px"
         d="m 99.494642,24.737947 v 11.582407 q 0,0.461618 -0.4826,0.461618 h -0.37768 q -0.461621,0 -0.461621,-0.461618 V 22.576737 q 0,-0.482601 0.461621,-0.482601 h 0.44063 q 0.20983,0 0.29376,0.104913 0.10491,0.104914 0.14688,0.146879 l 7.742578,11.834199 v -11.60339 q 0,-0.482601 0.46162,-0.482601 h 0.37769 q 0.4826,0 0.4826,0.482601 v 13.722635 q 0,0.4826 -0.46162,0.4826 h -0.46162 q -0.20982,0 -0.31474,-0.104913 -0.0839,-0.104913 -0.12589,-0.146879 z" />
      <path
         inkscape:connector-curvature="0"
         id="path5393"
         style="font-style:normal;font-variant:normal;font-weight:300;font-stretch:normal;line-height:19.05288124px;font-family:Rubik;-inkscape-font-specification:'Rubik Light';letter-spacing:0px;word-spacing:0px;stroke-width:0.52456558px"
         d="m 117.55216,23.143267 q -0.94422,0 -1.72058,0.251792 -0.75537,0.230809 -1.3219,0.776357 -0.54555,0.524565 -0.88127,1.36387 -0.31474,0.839305 -0.35671,2.014332 -0.063,1.888436 0,3.776872 0.042,1.175027 0.35671,2.014332 0.33572,0.839305 0.88127,1.384853 0.56653,0.524565 1.3219,0.776357 0.77636,0.230809 1.72058,0.230809 0.92323,0 1.72057,-0.251792 0.79734,-0.272774 1.36387,-0.797339 0.58752,-0.545549 0.92324,-1.384853 0.33572,-0.839305 0.33572,-1.972367 v -1.070114 h -3.65098 q -0.46161,0 -0.46161,-0.4826 v -0.293757 q 0,-0.4826 0.46161,-0.4826 h 4.49028 q 0.4826,0 0.4826,0.4826 v 1.846471 q 0,1.258957 -0.37768,2.308089 -0.37769,1.028148 -1.11208,1.783522 -0.71341,0.755375 -1.78352,1.175027 -1.04914,0.39867 -2.39202,0.39867 -1.36387,0 -2.39202,-0.39867 -1.02815,-0.419652 -1.74156,-1.154044 -0.69243,-0.734392 -1.07011,-1.741558 -0.35671,-1.028148 -0.39867,-2.266123 -0.042,-0.944218 -0.042,-1.993349 0,-1.049131 0.042,-1.993349 0.042,-1.237975 0.41965,-2.245141 0.37769,-1.028148 1.07011,-1.76254 0.71341,-0.734392 1.74156,-1.133061 1.02815,-0.419653 2.37104,-0.419653 1.4478,0 2.47595,0.440635 1.02814,0.440635 1.67861,1.049131 0.65046,0.608496 0.9652,1.27994 0.31474,0.671444 0.33572,1.112079 0.021,0.188844 -0.10491,0.31474 -0.1259,0.104913 -0.33573,0.104913 h -0.46161 q -0.18885,0 -0.27278,-0.08393 -0.0839,-0.104913 -0.16786,-0.335722 -0.16786,-0.4826 -0.4826,-0.944218 -0.29376,-0.4826 -0.79734,-0.839305 -0.50358,-0.377687 -1.19601,-0.608496 -0.69243,-0.230809 -1.63664,-0.230809 z" />
    </g>
  </g>
</svg>
