<?xml version="1.0" encoding="UTF-8" standalone="no"?>
<!-- Generator: Adobe Illustrator 22.0.1, SVG Export Plug-In . SVG Version: 6.00 Build 0)  -->

<svg
   xmlns:dc="http://purl.org/dc/elements/1.1/"
   xmlns:cc="http://creativecommons.org/ns#"
   xmlns:rdf="http://www.w3.org/1999/02/22-rdf-syntax-ns#"
   xmlns:svg="http://www.w3.org/2000/svg"
   xmlns="http://www.w3.org/2000/svg"
   xmlns:sodipodi="http://sodipodi.sourceforge.net/DTD/sodipodi-0.dtd"
   xmlns:inkscape="http://www.inkscape.org/namespaces/inkscape"
   version="1.1"
   x="0px"
   y="0px"
   viewBox="0 0 486 248.7"
   style="enable-background:new 0 0 486 248.7;"
   xml:space="preserve"
   id="svg133"
   sodipodi:docname="logo.svg"
   inkscape:version="0.92.2 5c3e80d, 2017-08-06"><metadata
     id="metadata139"><rdf:RDF><cc:Work
         rdf:about=""><dc:format>image/svg+xml</dc:format><dc:type
           rdf:resource="http://purl.org/dc/dcmitype/StillImage" /></cc:Work></rdf:RDF></metadata><defs
     id="defs137" /><sodipodi:namedview
     pagecolor="#ffffff"
     bordercolor="#666666"
     borderopacity="1"
     objecttolerance="10"
     gridtolerance="10"
     guidetolerance="10"
     inkscape:pageopacity="0"
     inkscape:pageshadow="2"
     inkscape:window-width="2534"
     inkscape:window-height="1412"
     id="namedview135"
     showgrid="false"
     inkscape:zoom="0.94893447"
     inkscape:cx="304.12119"
     inkscape:cy="124.35"
     inkscape:window-x="0"
     inkscape:window-y="56"
     inkscape:window-maximized="0"
     inkscape:current-layer="Ebene_2" /><style
     type="text/css"
     id="style2">
	.st0{fill:#F8D100;}
	.st1{fill:#E2001A;}
	.st2{fill:#1A171B;}
	.st3{display:none;}
	.st4{display:inline;fill:#1A171B;}
	.st5{font-family:'MyriadPro-Cond';}
	.st6{font-size:44.4888px;}
</style><g
     id="svg3834"><g
       id="layer1"
       transform="translate(-106.98015,-408.02309)"><path
         id="path44"
         class="st0"
         d="M235,573.4h5.9v78.3h-13.7v-78.3H235z" /><path
         id="path48"
         class="st1"
         d="M235,494.7h5.9v78.7h-13.7v-78.7H235z" /><path
         id="path216"
         class="st2"
         d="M240.9,416.8v78.3H235h-7.8v-78.3L240.9,416.8L240.9,416.8z M167.2,445.5    c0.1-0.9,0.2-1.8,0.2-2.7c0-0.5,0-1.1-0.1-1.8c7.8-0.1,14.6-5.7,14.6-12.2c0-3.3-2.1-5.8-3.4-7.3c0.3-0.1,0.5-0.1,0.8-0.2    c1.1,1,4.4,4.5,4.4,9C183.8,438.1,176,445.3,167.2,445.5 M159.3,418.5c-0.1-0.9-0.5-1.6-1-2.3c0-0.8,0.4-1.5,1.6-0.9    c-0.7,0.7-0.2,2-0.2,2s1.4-0.7,1.1-1.6C163,416.1,161.5,418.9,159.3,418.5 M157.5,422.5c-0.3-1.2-0.9-2.3-1.6-3.2    c-0.7-0.8-1.8-1.8-3.4-1.8c-0.7,0-1.9,0.3-2.6,0.6c-0.3-0.5-0.8-1.7-0.8-2.3c0-0.6,1-1.1,2.8-1.1c4,0,6.5,1.8,6.5,4.9    C158.3,420.6,157.9,421.6,157.5,422.5 M167.9,474.5c0.5,0,0.7,0.1,1,0.2c1.2,3.2,5.6,9.1,5.8,9.4l0,0.1l0.1,0    c1.1-0.2,3.9-0.6,6.3-0.6h0.1c0.3,0,0.5,0,0.7,0.2c0.1,0.2,0.2,0.4,0.2,0.8c0,0.6-0.3,1.6-0.5,2c-0.8-0.9-2.2-1.3-4.3-1.3    c-0.6,0-1.4,0.2-1.8,0.3l-0.2,0l-0.2,0l1.2,1.2c1.9,1.9,3.5,3.5,3.5,4.6c0,0.7-0.6,1.5-1.2,1.9c-0.1-2-2.1-4.7-4.1-6.2l-0.2-0.1    l0,0.7c0,0.5-0.1,1.2-0.1,2c0,3.8-0.4,4.4-1.7,4.4c-0.2,0-0.5-0.1-0.7-0.1c0.7-0.9,1-2.1,1-4.3l0-1l0-0.8c0-0.9,0.1-1.5,0.2-2    l0-0.3l-0.2,0c-0.6-0.1-1.8-0.2-2.6-0.2c-1.9,0-3.2,0.2-4.1,1c-0.6-0.5-1.2-1.3-1.2-1.9c0-0.8,0.5-0.9,1.1-0.9    c0.3,0,0.6,0,1.1,0.1c0.8,0.1,2,0.3,4.5,0.3h0.2l0-0.2c-0.6-1.8-2.4-4.5-5.2-7.9C166.8,475.1,167,474.5,167.9,474.5 M143.7,483.9    l0,0.2h0.2c2.5,0,3.7-0.2,4.5-0.3c0.4-0.1,0.7-0.1,1.1-0.1c0.6,0,1.1,0.1,1.1,0.9c0,0.5-0.6,1.4-1.2,1.9c-0.9-0.9-2.2-1-4.1-1    c-0.9,0-2,0.2-2.6,0.2l-0.1,0l-0.1,0l0,0.3c0.1,0.5,0.2,1.2,0.2,2l0,0.8l0,1c0,2.1,0.3,3.3,1,4.3c-0.2,0.1-0.5,0.1-0.7,0.1    c-1.3,0-1.7-0.6-1.7-4.4c0-0.8,0-1.5-0.1-2l0-0.7l-0.2,0.1c-2,1.5-4,4.2-4.1,6.2c-0.6-0.4-1.2-1.2-1.2-1.9c0-1.1,1.6-2.7,3.5-4.6    l1.1-1.1l0.1-0.1l-0.4-0.1c-0.4-0.1-1.2-0.3-1.8-0.3c-2.1,0-3.5,0.4-4.3,1.3c-0.3-0.4-0.5-1.4-0.5-2c0-0.4,0.1-0.6,0.2-0.8    c0.2-0.2,0.5-0.2,0.7-0.2h0.1c2.3,0,5.2,0.4,6.3,0.6l0.1,0l0-0.1c0.2-0.3,4.7-6.2,5.8-9.4c0.3-0.1,0.5-0.2,1-0.2    c0.9,0,1.1,0.6,1.4,1.5C146.1,479.5,144.4,482.1,143.7,483.9 M131.6,430.4c0-4.5,3.2-8,4.4-9c0.3,0.1,0.5,0.1,0.8,0.2    c-1.2,1.5-3.4,4-3.4,7.3c0,6.5,7,12.2,14.9,12.2c-0.1,0.6-0.1,1.1-0.1,1.7c0,1,0.1,1.9,0.1,2.7    C139.5,445.4,131.6,438.2,131.6,430.4 M191.5,444.1c4,6.3,7.1,6.2,11.9,6.2c-3.9-3-6.5-6.9-7.7-8.8l-7.3-11.7    c-0.7-3.6-2.6-7-5.4-9.5c0.9-0.4,1.7-0.7,2.2-1.1c-4.8,0-9.5-2.4-12.1-2.4c-1.7,0-2.8,1-2.8,2.3c0.1,1.5,1.6,3,4.4,3    c0.6,0,1.4-0.1,2.3-0.2c1.5,2.1,2.7,4,2.7,6.8c0,5.1-6.1,9.1-12.3,9.1c-0.4,0-0.7,0-1,0c-0.6-1.3-2.4-3.4-2.4-5.8    c0-4.1,2.7-7.4,2.7-11.4c0-2.5-1.2-4.1-1.7-4.7c0.8-0.7,1.6-1.6,1.8-2.2c-0.4,0.2-1,0.2-1.7,0.2c-3,0-5.4-0.8-7.7-0.8    c-1.3,0-1.7,0.4-1.7,0.8c0,0.1,0,0.3,0.1,0.4c-0.5-0.2-1-0.3-1.5-0.4c-0.7-0.1-1.4-0.2-2.2-0.2c-2.9,0-3.9,1.2-3.9,2.2    c0,0.9,0.7,2.5,1.5,3.7c1.1-0.6,2.5-0.9,3.1-0.9c1.5,0,2.9,1.4,3.6,3.2c-1,0.1-1.2,0.2-2.3,0.2c-2.8,0-4.7-1-5.1-1    c0,0-0.1,0-0.1,0.1c0,0.4,0.8,1.4,2.4,2c2.1,0.8,5.1,1.1,5.6,1.1c0,0.1-0.5,1.1-1.1,1.2c-0.1,0-0.2,0-0.4,0    c-2.1-0.4-2.7-0.6-5.5-1.6c-0.1,0-0.1,0-0.1,0.1c0,1.1,2.8,3.5,5.3,4.4c-2.1,2.7-4.7,5.4-5.9,9.5c-0.3,0-0.7,0-1,0    c-6.2,0-12.3-4-12.3-9.1c0-2.7,1.2-4.6,2.7-6.8c0.9,0.1,1.7,0.2,2.3,0.2c2.8,0,4.3-1.5,4.4-3c0-1.3-1.1-2.3-2.8-2.3    c-2.6,0-7.3,2.4-12.1,2.4c0.5,0.4,1.3,0.7,2.2,1.1c-2.8,2.5-4.7,5.9-5.4,9.5l-7.3,11.7c-1.2,2-3.8,5.8-7.8,8.8    c4.7,0,7.9,0.1,11.9-6.2l3.8-6c0.3,0.8,0.6,1.5,1,2.3l-7.5,11.9c-1.2,2-3.8,5.8-7.8,8.8c4.7,0,7.9,0.1,11.9-6.2l6.4-10.3    c0.5,0.5,1,1,1.5,1.5l-9.1,14.5c-1.2,2-3.8,5.8-7.7,8.8c4.7,0,7.9,0.1,11.9-6.2l8.8-14.2c0.6,0.4,1.2,0.7,1.8,1.1l-10.8,17.3    c-1.2,2-3.8,5.8-7.7,8.8c4.7,0,7.9,0.1,11.9-6.2l11.1-17.8c0.7,0.3,1.3,0.5,2,0.7L132.9,473c-1.2,2-3.8,5.8-7.7,8.8    c4.7,0,7.9,0.1,11.9-6.2l13.4-21.4c0.1,0,0.3,0,0.4,0.1c0.4,1.2,0.6,2.2,0.6,3.3c0,6.7-4.4,12.7-9.7,17.3c0.3,0.1,0.9,0.2,1.5,0.2    c1.1,0,1.8-0.1,2.3-0.1c-1.2,2.8-3.9,6.4-5.2,8.3c-1.7-0.3-4.3-0.6-5.9-0.6c-1.7,0-1.9,1-1.9,1.9c0,1.6,0.7,2.8,1.6,3.5    c0.3-0.8,1-1.9,4.2-1.9c0.1,0,0.2,0,0.3,0c-0.9,1-3.9,3.4-3.9,5.3c0,1.3,1.4,3.2,3.2,3.2c-0.1-0.4-0.1-0.8-0.1-1.1    c0-1.5,1.4-3.4,2.5-4.6c0,0.4,0,0.3,0,0.8c0,3.6,0.3,5.3,2.6,5.3c1.1,0,1.9-0.6,2.2-0.8c-1.5-1.4-1.6-2.5-1.6-4.5    c0-0.5,0-1.1,0-1.8c0-0.5,0-1.1-0.1-1.5c0.8-0.1,1.2-0.1,1.8-0.1c0,0,3.3-0.3,4.1,1.4c0.9-0.8,2.2-2,2.2-3.2    c0-0.8-0.4-1.8-2.1-1.8c-0.6,0-2.7,0.4-4.3,0.4c0.5-1,2.5-4,4.2-6.1c0.3,0.8,0.7,1.7,1.6,2.5c0.1-1.4,0.9-5.7,3.1-8.3    c0.2,1.7,0.6,3.5,0.6,7.2c0,9.1-2.2,15.7-6.8,17c0.6,1,1.9,2,3.2,2c1.7,0,2.6-1.9,3.6-3.7c0.5,1.3,1.8,4.6,3.2,4.6    s2.7-3.3,3.2-4.6c0.9,1.8,1.9,3.7,3.5,3.7c1.3,0,2.6-0.9,3.2-2c-4.6-1.3-6.8-8-6.8-17c0-3.7,0.3-5.5,0.6-7.2    c2.2,2.5,3,6.9,3.1,8.3c0.9-0.7,1.3-1.6,1.6-2.5c1.7,2.1,3.8,5.1,4.2,6.1c-1.7,0-3.7-0.4-4.3-0.4c-1.7,0-2.1,1-2.1,1.8    c0,1.3,1.3,2.4,2.2,3.2c0.8-1.7,4.1-1.4,4.1-1.4c0.6,0,1,0,1.8,0.1c-0.1,0.4-0.1,1.1-0.1,1.5c0,0.7,0,1.2,0,1.8    c0,2-0.1,3.1-1.6,4.5c0.3,0.2,1.1,0.8,2.2,0.8c2.3,0,2.6-1.7,2.6-5.3c0-0.4,0-0.4,0-0.8c1.2,1.3,2.5,3.1,2.5,4.6    c0,0.3,0,0.7-0.1,1.1c1.8,0,3.2-1.9,3.2-3.2c0-1.9-2.9-4.3-3.9-5.3c0.2,0,0.3,0,0.3,0c3.2,0,3.8,1.1,4.2,1.9    c0.9-0.7,1.6-1.9,1.6-3.5c0-0.9-0.2-1.9-1.9-1.9c-1.7,0-4.2,0.2-5.9,0.6c-1.3-1.9-4-5.5-5.2-8.3c0.5,0.1,1.2,0.1,2.3,0.1    c0.5,0,1.1-0.1,1.5-0.2c-5.3-4.6-9.7-10.5-9.7-17.3c0-1.1,0.3-2.2,0.6-3.3c0.1,0,0.3-0.1,0.4-0.1l13.4,21.4    c4,6.3,7.2,6.2,11.9,6.2c-3.9-3-6.5-6.9-7.7-8.8L170,452.9c0.7-0.2,1.3-0.5,2-0.7l11.1,17.8c4,6.3,7.1,6.2,11.9,6.2    c-3.9-3-6.5-6.8-7.7-8.8l-10.8-17.3c0.6-0.3,1.2-0.7,1.8-1.1l8.8,14.2c4,6.3,7.1,6.2,11.9,6.2c-3.9-3-6.5-6.8-7.7-8.8l-9.1-14.5    c0.5-0.5,1-1,1.5-1.5l6.4,10.3c4,6.3,7.1,6.2,11.9,6.2c-3.9-3-6.5-6.8-7.8-8.8l-7.5-11.9c0.4-0.7,0.7-1.5,1-2.3L191.5,444.1    L191.5,444.1z" /></g></g><g
     id="Ebene_3"
     class="st3"><path
       class="st4"
       d="M354.6,121c0-2.2-0.1-3.7-0.4-4.6c-0.5-1.8-1.7-2.7-3.4-2.7c-2.4,0-3.8,1.4-4.1,4.3c-0.1,1-0.2,2-0.2,2.9   H354.6z"
       id="path9" /><path
       class="st4"
       d="M358.1,123.4h-11.7v1.5c0,2.3,0.2,3.9,0.6,4.9c0.6,1.4,1.7,2.2,3.5,2.2c2.6,0,3.9-1.6,4-4.9h3.4   c-0.2,5-2.7,7.4-7.5,7.4c-3.1,0-5.2-1-6.4-3.1c-0.8-1.6-1.3-4.1-1.3-7.6c0-4,0.4-6.8,1.1-8.5c1.2-2.7,3.4-4,6.8-4   c3.2,0,5.3,1.2,6.4,3.5c0.6,1.5,1,4,1,7.6L358.1,123.4L358.1,123.4z"
       id="path11" /><rect
       x="333.7"
       y="111.7"
       class="st4"
       width="3.5"
       height="22.3"
       id="rect13" /><rect
       x="333.5"
       y="102.5"
       class="st4"
       width="3.8"
       height="3.8"
       id="rect15" /><path
       class="st4"
       d="M323.6,122.2c0-2.5-0.2-4.4-0.6-5.6c-0.6-1.8-1.9-2.7-3.6-2.7c-1.8,0-3,1-3.6,3.1c-0.4,1.2-0.5,3.3-0.5,6.1   c0,2.6,0.2,4.4,0.5,5.5c0.6,1.8,1.7,2.7,3.4,2.7c2,0,3.3-1.1,4-3.3C323.5,126.9,323.6,124.9,323.6,122.2"
       id="path17" /><path
       class="st4"
       d="M327.2,111.7c0,0.3,0,0.9-0.1,1.7c0,0.8-0.1,1.5-0.1,2V135c0,2.7-0.6,4.7-1.9,5.9c-1.3,1.2-3.3,1.9-6.1,1.9   c-4.6,0-6.9-2.2-7-6.5h3.7c0,2.7,1.2,4.1,3.5,4.1c1.8,0,3-0.7,3.6-1.9c0.4-0.9,0.6-2.3,0.6-4.2v-3c-1.2,1.7-3,2.6-5.2,2.6   c-2.8,0-4.7-1.2-5.7-3.5c-0.7-1.5-1-3.9-1-7.2c0-3.6,0.4-6.3,1.1-8.1c1.1-2.5,3-3.8,5.7-3.8c2.5,0,4.3,1,5.4,3.1v-2.6H327.2   L327.2,111.7z"
       id="path19" /><path
       class="st4"
       d="M308.8,114.7c-0.4-0.1-0.6-0.1-0.8-0.1c-1.7,0-2.9,0.5-3.8,1.5c-0.8,1-1.3,2.4-1.3,4.1V134h-3.5v-18.2   c0-1.5,0-2.9-0.1-4.1h3.5v2.9c1.2-2.2,3.1-3.4,5.7-3.4C308.7,111.3,308.8,112.4,308.8,114.7"
       id="path21" /><path
       class="st4"
       d="M290.4,121c0-2.2-0.1-3.7-0.4-4.6c-0.5-1.8-1.7-2.7-3.4-2.7c-2.4,0-3.8,1.4-4.1,4.3c-0.1,1-0.2,2-0.2,2.9   H290.4z"
       id="path23" /><path
       class="st4"
       d="M294,123.4h-11.7v1.5c0,2.3,0.2,3.9,0.6,4.9c0.6,1.4,1.7,2.2,3.5,2.2c2.6,0,3.9-1.6,4-4.9h3.5   c-0.2,5-2.7,7.4-7.5,7.4c-3.1,0-5.2-1-6.4-3.1c-0.9-1.6-1.3-4.1-1.3-7.6c0-4,0.4-6.8,1.1-8.5c1.2-2.7,3.4-4,6.8-4   c3.2,0,5.3,1.2,6.4,3.5c0.6,1.5,1,4,1,7.6V123.4L294,123.4z"
       id="path25" /><path
       class="st4"
       d="M273,134h-3.5v-14.2c0-1.9-0.1-3.2-0.4-3.9c-0.5-1.3-1.5-1.9-3.1-1.9c-1.5,0-2.7,0.7-3.5,2.2   c-0.7,1.3-1,2.8-1,4.5V134H258v-17.4c0-2-0.1-3.6-0.2-4.9h3.4v3.1c1.2-2.4,3.2-3.5,5.8-3.5c3.9,0,5.9,2.3,5.9,6.9L273,134L273,134z   "
       id="path27" /><polygon
       class="st4"
       points="252.8,134 237.8,134 237.8,102.1 252.5,102.1 252.5,105.1 241.5,105.1 241.5,116.1 251.9,116.1    251.9,119 241.5,119 241.5,131 252.8,131 252.8,134  "
       id="polygon29" /><path
       class="st4"
       d="M216.5,123.1c0-3-0.2-5.2-0.7-6.5c-0.6-1.9-1.8-2.8-3.6-2.8c-1.7,0-2.9,1-3.5,2.9c-0.4,1.3-0.6,3.2-0.6,5.9   c0,2.9,0.2,5.1,0.7,6.4c0.6,1.8,1.7,2.7,3.3,2.7c1.9,0,3.1-0.9,3.8-2.8C216.3,127.8,216.5,125.9,216.5,123.1"
       id="path31" /><path
       class="st4"
       d="M220.1,134h-3.4l0-2.6c-1.3,1.9-3,2.9-5.2,2.9c-2.9,0-4.8-1.3-5.9-3.9c-0.7-1.7-1-4.4-1-8c0-3.4,0.4-6,1.2-7.7   c1.1-2.4,2.9-3.6,5.6-3.6c2.2,0,3.9,0.9,5,2.6v-11.8h3.5v27.8C219.9,130.6,220,132,220.1,134"
       id="path33" /><path
       class="st4"
       d="M198.8,134h-3.5v-14.2c0-1.9-0.1-3.2-0.4-3.9c-0.5-1.3-1.5-1.9-3.1-1.9c-1.5,0-2.7,0.7-3.5,2.2   c-0.7,1.3-1,2.8-1,4.5V134h-3.5v-17.4c0-2-0.1-3.6-0.2-4.9h3.5v3.1c1.2-2.4,3.2-3.5,5.8-3.5c3.9,0,5.9,2.3,5.9,6.9L198.8,134   L198.8,134z"
       id="path35" /><path
       class="st4"
       d="M177.5,134H174l0-2.8c-1.4,2.1-3.2,3.2-5.6,3.2c-4,0-6-2.3-6-6.9v-15.8h3.5V126c0,1.8,0.1,3.1,0.4,3.9   c0.5,1.3,1.5,1.9,3.1,1.9c2.9,0,4.4-2.2,4.4-6.5v-13.5h3.5v17.4C177.3,130.9,177.4,132.5,177.5,134"
       id="path37" /><path
       class="st4"
       d="M393.3,87.1c-1.1,0.1-1.9,0.2-2.6,0.2c-2,0-3.4-0.4-4.1-1.3c-0.6-0.8-0.9-2.2-0.9-4.2V67.3h-3.3v-2.6h3.3v-4.1   l3.5-1.5v5.7h4v2.6h-4v14c0,1.2,0.2,2.1,0.5,2.5c0.4,0.4,1,0.6,2,0.6c0.2,0,0.7-0.1,1.6-0.2L393.3,87.1L393.3,87.1z"
       id="path39" /><path
       class="st4"
       d="M380.3,57.7c-0.3,0-0.7,0-1.4,0c-1.1,0-1.8,0.4-2.2,1.2c-0.2,0.6-0.4,1.5-0.4,2.7v3.2h3.8v2.6h-3.8v19.7h-3.5   V67.3h-3.3v-2.6h3.3v-2.4c0-2.4,0.3-4.1,0.9-5.2c0.8-1.5,2.4-2.3,4.8-2.3c0.6,0,1.2,0,1.8,0.1V57.7L380.3,57.7z"
       id="path41" /><path
       class="st4"
       d="M361.8,78.4v-2.7h-0.9c-4.7,0-7,1.6-7,4.8c0,2.9,1.1,4.3,3.3,4.3c1.7,0,2.9-0.7,3.7-2.1   C361.5,81.6,361.8,80.2,361.8,78.4"
       id="path43" /><path
       class="st4"
       d="M365.5,87.1h-3.4l0-2.9c-1.5,2.2-3.5,3.3-6,3.3c-1.9,0-3.4-0.6-4.4-1.9c-0.9-1.2-1.4-2.7-1.4-4.7   c0-3.2,1.2-5.3,3.6-6.4c1.6-0.7,4.2-1.1,7.9-1.2v-1c0-1.8-0.1-3.1-0.4-3.8c-0.5-1.2-1.5-1.8-3-1.8c-1.1,0-1.9,0.3-2.7,0.9   c-0.7,0.6-1.1,1.4-1.1,2.5v0.2h-3.5v-0.2c0-2,0.7-3.6,2.2-4.6c1.3-0.9,3-1.3,5.1-1.3c2.6,0,4.3,0.6,5.4,1.9c0.9,1.1,1.4,3,1.4,5.6   v8.2C365.2,82.6,365.3,85,365.5,87.1"
       id="path45" /><path
       class="st4"
       d="M345.1,87.1h-3.5V72.8c0-1.9-0.1-3.2-0.4-3.9c-0.5-1.3-1.5-1.9-3.1-1.9c-3,0-4.5,2.2-4.5,6.6v13.5h-3.5v-32   h3.5v12.3c1.4-2,3.3-3.1,5.6-3.1c3.9,0,5.8,2.3,5.8,7V87.1z"
       id="path47" /><path
       class="st4"
       d="M325.2,80.1c0,4.9-2.3,7.4-6.9,7.4c-3.2,0-5.3-1-6.4-3.1c-0.8-1.6-1.2-4.3-1.2-8.1s0.4-6.6,1.1-8.2   c1.1-2.5,3.3-3.8,6.6-3.8c2.5,0,4.3,0.6,5.4,1.8c1,1.1,1.5,2.9,1.5,5.4h-3.5c0-3.1-1.2-4.7-3.4-4.7c-1.8,0-3,1-3.6,3   c-0.3,1.2-0.5,3.2-0.5,6.2c0,3.4,0.3,5.7,0.8,6.9c0.6,1.4,1.6,2.1,3.2,2.1c1.4,0,2.4-0.5,2.9-1.5c0.4-0.7,0.6-1.9,0.7-3.4H325.2   L325.2,80.1z"
       id="path49" /><path
       class="st4"
       d="M306.2,81c0,4.3-2.3,6.5-7,6.5c-4.6,0-6.8-2.4-6.7-7.2h3.5c0,0.4,0,0.9,0,1.2c0.2,2.3,1.3,3.5,3.3,3.5   c2.2,0,3.4-1.2,3.4-3.5c0-1.2-0.4-2.2-1.1-2.9c-0.4-0.5-1.4-1.1-3-1.9c-2.1-1.1-3.4-1.9-4-2.5c-1.1-1-1.7-2.4-1.7-4.1   c0-1.9,0.6-3.4,1.9-4.4c1.2-0.9,2.8-1.4,4.7-1.4c2.3,0,3.9,0.5,4.9,1.6c1,1.1,1.5,2.7,1.5,5h-3.5c0-2.8-1-4.2-3.1-4.2   c-0.9,0-1.6,0.3-2.2,0.8c-0.5,0.6-0.8,1.3-0.8,2.2c0,1,0.4,1.9,1.3,2.6c0.4,0.4,1.5,1.1,3.1,1.9c1.8,1,3,1.8,3.7,2.5   C305.7,77.9,306.2,79.3,306.2,81"
       id="path51" /><path
       class="st4"
       d="M289.5,87.1c-1.1,0.1-1.9,0.2-2.6,0.2c-2,0-3.4-0.4-4.1-1.3c-0.6-0.8-0.9-2.2-0.9-4.2V67.3h-3.3v-2.6h3.3v-4.1   l3.5-1.5v5.7h4v2.6h-4v14c0,1.2,0.2,2.1,0.5,2.5c0.3,0.4,1,0.6,2,0.6c0.2,0,0.7-0.1,1.6-0.2L289.5,87.1L289.5,87.1z"
       id="path53" /><path
       class="st4"
       d="M276.7,67.7c-0.4-0.1-0.6-0.1-0.8-0.1c-1.7,0-2.9,0.5-3.8,1.5c-0.8,1-1.3,2.4-1.3,4.1v13.8h-3.5V68.8   c0-1.5,0-2.9-0.1-4.1h3.5v2.9c1.2-2.2,3.1-3.4,5.7-3.4C276.6,64.3,276.7,65.4,276.7,67.7"
       id="path55" /><rect
       x="257.3"
       y="64.8"
       class="st4"
       width="3.5"
       height="22.3"
       id="rect57" /><rect
       x="257.1"
       y="55.5"
       class="st4"
       width="3.8"
       height="3.8"
       id="rect59" /><polygon
       class="st4"
       points="253.9,55.1 246.5,87.1 242,87.1 236.4,59 230.5,87.1 226,87.1 218.9,55.1 222.9,55.1 228.4,83    234.4,55.1 238.9,55.1 244.5,83 250.3,55.1  "
       id="polygon61" /><path
       class="st4"
       d="M206.1,67.7c-0.4-0.1-0.6-0.1-0.8-0.1c-1.7,0-2.9,0.5-3.8,1.5c-0.8,1-1.3,2.4-1.3,4.1v13.8h-3.5V68.8   c0-1.5,0-2.9-0.1-4.1h3.4v2.9c1.2-2.2,3.1-3.4,5.7-3.4C206,64.3,206.1,65.4,206.1,67.7"
       id="path63" /><rect
       x="177.7"
       y="55.4"
       class="st4"
       width="3.3"
       height="4.2"
       id="rect65" /><rect
       x="184.6"
       y="55.4"
       class="st4"
       width="3.4"
       height="4.2"
       id="rect67" /><path
       class="st4"
       d="M190.4,87.1h-3.5l0-2.8c-1.4,2.1-3.2,3.2-5.6,3.2c-4,0-6-2.3-6-6.9V64.8h3.5V79c0,1.8,0.1,3.1,0.4,3.9   c0.5,1.3,1.5,1.9,3.1,1.9c2.9,0,4.4-2.2,4.4-6.5V64.8h3.5v17.4C190.3,83.9,190.3,85.5,190.4,87.1"
       id="path69" /><path
       class="st4"
       d="M170.9,57.7c-0.3,0-0.7,0-1.4,0c-1.1,0-1.8,0.4-2.2,1.2c-0.2,0.6-0.4,1.5-0.4,2.7v3.2h3.8v2.6H167v19.7h-3.5   V67.3h-3.3v-2.6h3.3v-2.4c0-2.4,0.3-4.1,0.9-5.2c0.8-1.5,2.4-2.3,4.8-2.3c0.6,0,1.2,0,1.8,0.1L170.9,57.7L170.9,57.7z"
       id="path71" /><path
       class="st4"
       d="M481,40.1h-3.5v-15c0-1.6-0.1-2.8-0.4-3.5c-0.4-1.1-1.3-1.6-2.7-1.6c-2.6,0-3.9,2-3.9,6.1v14H467V24.9   c0-1.6-0.1-2.7-0.4-3.3c-0.4-1.1-1.3-1.6-2.7-1.6c-1.3,0-2.3,0.6-3,1.9c-0.6,1.2-0.9,2.6-0.9,4.5v13.7h-3.5V21.6   c0-1.3-0.1-2.6-0.2-3.9h3.5v2.9c1.2-2.3,2.9-3.4,5.3-3.4c2.5,0,4.2,1.1,5,3.4c1.3-2.3,3.1-3.4,5.5-3.4c2,0,3.5,0.7,4.3,2   c0.8,1.2,1.2,3,1.2,5.6L481,40.1L481,40.1z"
       id="path73" /><path
       class="st4"
       d="M450.1,40.1h-3.5l0-2.8c-1.4,2.1-3.2,3.2-5.6,3.2c-4,0-6-2.3-6-6.9V17.8h3.5V32c0,1.8,0.1,3.1,0.4,3.9   c0.5,1.3,1.5,1.9,3.1,1.9c2.9,0,4.4-2.2,4.4-6.5V17.8h3.5v17.4C449.9,36.9,450,38.5,450.1,40.1"
       id="path75" /><rect
       x="424.8"
       y="17.8"
       class="st4"
       width="3.5"
       height="22.3"
       id="rect77" /><rect
       x="424.7"
       y="8.5"
       class="st4"
       width="3.8"
       height="3.8"
       id="rect79" /><path
       class="st4"
       d="M420.6,20.7c-0.4-0.1-0.6-0.1-0.8-0.1c-1.7,0-2.9,0.5-3.8,1.5c-0.8,1-1.3,2.4-1.3,4.1v13.8h-3.5V21.8   c0-1.5,0-2.9-0.1-4.1h3.4v2.9c1.2-2.2,3.1-3.4,5.7-3.4C420.5,17.3,420.6,18.4,420.6,20.7"
       id="path81" /><path
       class="st4"
       d="M402.2,27c0-2.2-0.1-3.7-0.4-4.6c-0.5-1.8-1.7-2.7-3.4-2.7c-2.4,0-3.8,1.4-4.1,4.3c-0.1,1-0.2,2-0.2,2.9   L402.2,27L402.2,27z"
       id="path83" /><path
       class="st4"
       d="M405.8,29.4h-11.7v1.5c0,2.3,0.2,3.9,0.6,4.9c0.6,1.4,1.7,2.2,3.5,2.2c2.6,0,3.9-1.6,4-4.9h3.4   c-0.2,5-2.7,7.4-7.5,7.4c-3.1,0-5.2-1-6.4-3.1c-0.9-1.6-1.3-4.1-1.3-7.6c0-3.9,0.4-6.8,1.1-8.5c1.2-2.7,3.4-4,6.8-4   c3.2,0,5.3,1.2,6.4,3.5c0.6,1.5,1,4,1,7.6V29.4L405.8,29.4z"
       id="path85" /><path
       class="st4"
       d="M387,40.1c-1.1,0.1-1.9,0.2-2.6,0.2c-2,0-3.4-0.4-4.1-1.3c-0.6-0.8-0.9-2.2-0.9-4.2V20.3h-3.3v-2.6h3.3v-4.1   l3.5-1.5v5.7h4v2.6h-4v14c0,1.2,0.2,2.1,0.5,2.5c0.3,0.4,1,0.6,2,0.6c0.2,0,0.7-0.1,1.6-0.2V40.1L387,40.1z"
       id="path87" /><path
       class="st4"
       d="M373.1,34c0,4.3-2.3,6.5-7,6.5c-4.6,0-6.8-2.4-6.7-7.2h3.5c0,0.4,0,0.9,0,1.2c0.2,2.3,1.3,3.5,3.3,3.5   c2.2,0,3.4-1.2,3.4-3.5c0-1.2-0.4-2.2-1.1-2.9c-0.4-0.5-1.4-1.1-3-1.9c-2.1-1.1-3.4-1.9-4-2.5c-1.1-1-1.7-2.4-1.7-4.1   c0-1.9,0.6-3.4,1.9-4.4c1.2-0.9,2.8-1.4,4.7-1.4c2.3,0,3.9,0.5,4.9,1.6c1,1.1,1.5,2.7,1.5,5h-3.5c0-2.8-1.1-4.2-3.1-4.2   c-0.9,0-1.6,0.3-2.2,0.8c-0.5,0.6-0.8,1.3-0.8,2.2c0,1,0.4,1.9,1.3,2.6c0.4,0.4,1.5,1.1,3.1,1.9c1.8,1,3,1.8,3.7,2.5   C372.6,30.9,373.1,32.3,373.1,34"
       id="path89" /><rect
       x="350.7"
       y="17.8"
       class="st4"
       width="3.5"
       height="22.3"
       id="rect91" /><rect
       x="350.5"
       y="8.5"
       class="st4"
       width="3.8"
       height="3.8"
       id="rect93" /><path
       class="st4"
       d="M344.1,40.1h-3.5V25.8c0-1.9-0.1-3.2-0.4-3.9c-0.5-1.3-1.5-1.9-3.1-1.9c-1.5,0-2.7,0.7-3.5,2.2   c-0.7,1.3-1,2.8-1,4.5v13.4h-3.5V22.6c0-2-0.1-3.6-0.2-4.9h3.5v3.1c1.2-2.4,3.2-3.5,5.8-3.5c3.9,0,5.9,2.3,5.9,6.9V40.1L344.1,40.1   z"
       id="path95" /><rect
       x="319.1"
       y="17.8"
       class="st4"
       width="3.5"
       height="22.3"
       id="rect97" /><rect
       x="318.9"
       y="8.5"
       class="st4"
       width="3.9"
       height="3.8"
       id="rect99" /><path
       class="st4"
       d="M312.5,40.1H309v-15c0-1.6-0.1-2.8-0.4-3.5c-0.4-1.1-1.3-1.6-2.7-1.6c-2.6,0-3.9,2-3.9,6.1v14h-3.5V24.9   c0-1.6-0.1-2.7-0.4-3.3c-0.4-1.1-1.3-1.6-2.7-1.6c-1.3,0-2.3,0.6-3.1,1.9c-0.6,1.2-0.9,2.6-0.9,4.5v13.7h-3.5V21.6   c0-1.3-0.1-2.6-0.2-3.9h3.5v2.9c1.2-2.3,2.9-3.4,5.3-3.4c2.5,0,4.2,1.1,5,3.4c1.3-2.3,3.1-3.4,5.5-3.4c2,0,3.5,0.7,4.3,2   c0.8,1.2,1.1,3,1.1,5.6V40.1L312.5,40.1z"
       id="path101" /><path
       class="st4"
       d="M282.6,34c0,4.3-2.3,6.5-7,6.5c-4.6,0-6.8-2.4-6.7-7.2h3.5c0,0.4,0,0.9,0,1.2c0.2,2.3,1.3,3.5,3.3,3.5   c2.2,0,3.4-1.2,3.4-3.5c0-1.2-0.4-2.2-1.1-2.9c-0.4-0.5-1.4-1.1-3-1.9c-2.1-1.1-3.4-1.9-4-2.5c-1.1-1-1.7-2.4-1.7-4.1   c0-1.9,0.6-3.4,1.9-4.4c1.2-0.9,2.8-1.4,4.7-1.4c2.3,0,3.9,0.5,4.9,1.6c1,1.1,1.5,2.7,1.5,5H279c0-2.8-1-4.2-3.1-4.2   c-0.9,0-1.6,0.3-2.2,0.8c-0.5,0.6-0.8,1.3-0.8,2.2c0,1,0.4,1.9,1.3,2.6c0.4,0.4,1.5,1.1,3.1,1.9c1.8,1,3,1.8,3.7,2.5   C282.1,30.9,282.6,32.3,282.6,34"
       id="path103" /><path
       class="st4"
       d="M261.2,27c0-2.2-0.1-3.7-0.4-4.6c-0.5-1.8-1.7-2.7-3.4-2.7c-2.4,0-3.8,1.4-4.1,4.3c-0.1,1-0.2,2-0.2,2.9H261.2   z"
       id="path105" /><path
       class="st4"
       d="M264.7,29.4H253v1.5c0,2.3,0.2,3.9,0.6,4.9c0.6,1.4,1.7,2.2,3.5,2.2c2.6,0,3.9-1.6,4-4.9h3.4   c-0.2,5-2.7,7.4-7.5,7.4c-3.1,0-5.2-1-6.4-3.1c-0.9-1.6-1.3-4.1-1.3-7.6c0-3.9,0.4-6.8,1.1-8.5c1.2-2.7,3.4-4,6.8-4   c3.2,0,5.3,1.2,6.4,3.5c0.6,1.5,1,4,1,7.6V29.4L264.7,29.4z"
       id="path107" /><path
       class="st4"
       d="M240.3,29.1c0-3-0.2-5.2-0.7-6.5c-0.6-1.9-1.8-2.8-3.6-2.8c-1.7,0-2.9,1-3.5,2.9c-0.4,1.3-0.6,3.2-0.6,5.9   c0,2.9,0.2,5.1,0.7,6.4c0.6,1.8,1.7,2.7,3.3,2.7c1.9,0,3.1-0.9,3.8-2.8C240.1,33.9,240.3,31.9,240.3,29.1"
       id="path109" /><path
       class="st4"
       d="M243.9,40.1h-3.4l0-2.6c-1.3,1.9-3,2.9-5.2,2.9c-2.9,0-4.8-1.3-5.9-3.9c-0.7-1.7-1-4.4-1-8   c0-3.4,0.4-6,1.2-7.7c1.1-2.4,2.9-3.6,5.6-3.6c2.2,0,3.9,0.9,5,2.6V8.1h3.5v27.8C243.8,36.7,243.8,38.1,243.9,40.1"
       id="path111" /><path
       class="st4"
       d="M222.6,40.1h-3.5V25.8c0-1.9-0.1-3.2-0.4-3.9c-0.5-1.3-1.5-1.9-3.1-1.9c-1.5,0-2.7,0.7-3.5,2.2   c-0.7,1.3-1,2.8-1,4.5v13.4h-3.5V22.6c0-2-0.1-3.6-0.2-4.9h3.5v3.1c1.2-2.4,3.2-3.5,5.8-3.5c3.9,0,5.9,2.3,5.9,6.9L222.6,40.1   L222.6,40.1z"
       id="path113" /><path
       class="st4"
       d="M201.3,40.1h-3.5l0-2.8c-1.4,2.1-3.2,3.2-5.6,3.2c-4,0-6-2.3-6-6.9V17.8h3.5V32c0,1.8,0.2,3.1,0.4,3.9   c0.5,1.3,1.5,1.9,3.1,1.9c2.9,0,4.4-2.2,4.4-6.5V17.8h3.5v17.4C201.1,36.9,201.2,38.5,201.3,40.1"
       id="path115" /><path
       class="st4"
       d="M176.5,31.1c0-2.1-0.5-3.6-1.4-4.7c-0.9-1-2.4-1.5-4.4-1.5h-4v12.1h3.4c2.2,0,3.8-0.4,4.8-1.1   C175.9,35.1,176.5,33.5,176.5,31.1"
       id="path117" /><path
       class="st4"
       d="M176,16.3c0-2-0.5-3.4-1.5-4.2c-0.9-0.7-2.2-1.1-4.2-1.1h-3.7V22h3.9C174.2,22,176,20.1,176,16.3"
       id="path119" /><path
       class="st4"
       d="M180.3,31.3c0,3.2-0.8,5.5-2.4,6.9c-1.5,1.2-3.9,1.9-7.1,1.9h-7.8v-32h8.5c2.9,0,5,0.6,6.3,1.9s2,3.3,2,6.1   c0,2-0.3,3.5-1,4.6c-0.7,1.2-2,2.1-3.8,2.7c2.1,0.5,3.5,1.4,4.3,2.8C180,27.3,180.3,29,180.3,31.3"
       id="path121" /></g><g
     id="Ebene_2"
     transform="matrix(0.60083533,0,0,0.60083533,53.801075,8.3809899)"><text
       transform="scale(1.0240417,0.97652269)"
       id="text130"
       x="157.55441"
       y="45.209175"
       style="font-size:14.17559433px;stroke-width:1.18129945"><tspan
         x="157.55441"
         y="45.209175"
         class="st5 st6"
         id="tspan124"
         style="font-size:52.55459595px;font-family:MyriadPro-Cond;stroke-width:1.18129945">Bundesministerium</tspan><tspan
         x="157.55441"
         y="100.73026"
         class="st5 st6"
         id="tspan126"
         style="font-size:52.55459595px;font-family:MyriadPro-Cond;stroke-width:1.18129945">für Demokratie und</tspan><tspan
         x="157.55441"
         y="156.25133"
         class="st5 st6"
         id="tspan128"
         style="font-size:52.55459595px;font-family:MyriadPro-Cond;stroke-width:1.18129945">Transparenz</tspan></text>
</g></svg>